<svg width="40" height="40" viewBox="0 0 40 40" fill="none" xmlns="http://www.w3.org/2000/svg">
<g clip-path="url(#clip0_1005_2457)">
<rect width="40" height="40" fill="#FEE9C4"/>
<path d="M12.56 33.96C10.32 33.5867 8.68 32.6133 7.64 31.04C6.62667 29.4667 6.12 27.6 6.12 25.44C6.12 23.8667 6.37333 22.2267 6.88 20.52C7.38667 18.7867 8.10667 17.0933 9.04 15.44C10 13.7867 11.1467 12.2533 12.48 10.84C13.8133 9.4 15.32 8.17333 17 7.16C18.68 6.14667 20.5067 5.44 22.48 5.04C23.68 4.8 24.8267 4.68 25.92 4.68C28.0533 4.68 29.76 5.10667 31.04 5.96C32.32 6.78666 32.96 7.85333 32.96 9.16C32.96 9.42667 32.9333 9.69333 32.88 9.96C32.8533 10.2 32.7733 10.4667 32.64 10.76C32.3467 11.5333 31.8533 12.2267 31.16 12.84C30.4933 13.4267 29.72 13.88 28.84 14.2C27.9867 14.52 27.1067 14.6533 26.2 14.6C25.7733 14.5467 25.4 14.4 25.08 14.16C24.7867 13.8933 24.64 13.5733 24.64 13.2C24.64 12.8267 24.8 12.4267 25.12 12C25.4133 12.1067 25.7467 12.16 26.12 12.16C26.7867 12.16 27.44 12 28.08 11.68C28.72 11.36 29.2533 10.92 29.68 10.36C30.1067 9.8 30.32 9.17333 30.32 8.48C30.32 7.54667 30 6.93333 29.36 6.64C28.72 6.32 28 6.16 27.2 6.16C26.6667 6.16 26.1333 6.21333 25.6 6.32C25.0933 6.4 24.68 6.48 24.36 6.56C22.84 6.96 21.28 7.69333 19.68 8.76C18.1067 9.8 16.6667 11.08 15.36 12.6C14.0533 14.0933 13.04 15.7333 12.32 17.52C11.7867 18.8267 11.3733 20.1467 11.08 21.48C10.7867 22.8133 10.64 24.08 10.64 25.28C10.64 26.8267 10.8933 28.1867 11.4 29.36C11.9333 30.5333 12.7733 31.3467 13.92 31.8C14.96 32.2 16.0267 32.4 17.12 32.4C18.88 32.4 20.6533 31.9733 22.44 31.12C24.2533 30.2667 25.92 29.1867 27.44 27.88C28.3733 27.0533 29.2133 26.2 29.96 25.32C30.7067 24.44 31.28 23.5067 31.68 22.52C32.1867 22.84 32.44 23.3067 32.44 23.92C32.44 24.4 32.2933 24.92 32 25.48C31.7333 26.04 31.4133 26.56 31.04 27.04C30.6933 27.52 30.3867 27.8933 30.12 28.16C28.2533 30.1067 26.0133 31.6 23.4 32.64C20.8133 33.68 18.1867 34.2 15.52 34.2C14.5067 34.2 13.52 34.12 12.56 33.96Z" fill="#944424"/>
</g>
<defs>
<clipPath id="clip0_1005_2457">
<rect width="40" height="40" fill="white"/>
</clipPath>
</defs>
</svg>