<svg width="379" height="63" viewBox="0 0 379 63" fill="none" xmlns="http://www.w3.org/2000/svg">
<path d="M6.6 57.84C5.90667 57.2533 5.42667 56.5333 5.16 55.68C4.89333 54.8267 4.76 53.8933 4.76 52.88C4.76 52.24 4.78667 51.6 4.84 50.96C4.94667 50.2667 5.05333 49.5733 5.16 48.88C5.58667 46.7467 6.30667 44.2133 7.32 41.28C8.38667 38.3467 9.58667 35.28 10.92 32.08C12.3067 28.88 13.6933 25.7867 15.08 22.8C16.52 19.76 17.8 17.0933 18.92 14.8C20.0933 12.4533 20.9733 10.72 21.56 9.6C21.7733 9.17333 21.96 8.77333 22.12 8.4C22.3333 8.02667 22.5467 7.68 22.76 7.36L19.88 7.76C17.48 8.08 15 8.58667 12.44 9.28C9.93333 9.97333 7.66667 10.88 5.64 12C3.66667 13.0667 2.22667 14.3733 1.32 15.92C1.26667 16.08 1.16 16.16 1 16.16C0.893333 16.16 0.813333 16.0533 0.76 15.84C0.653333 15.6267 0.626667 15.3867 0.68 15.12C1.21333 13.7333 1.88 12.4 2.68 11.12C3.48 9.84 4.25333 8.82666 5 8.08C6.17333 6.85333 7.77333 5.97333 9.8 5.44C11.8267 4.90666 13.9067 4.56 16.04 4.4C18.2267 4.24 20.0933 4.16 21.64 4.16H37.4C41.08 4.16 44.0133 4.72 46.2 5.84C48.44 6.96 50.04 8.45333 51 10.32C51.96 12.1333 52.3333 14.08 52.12 16.16C51.9067 18.4 51.2667 20.3467 50.2 22C49.1333 23.6533 47.8 25.0667 46.2 26.24C44.6533 27.36 43.0267 28.2667 41.32 28.96C39.6667 29.6 38.12 30.08 36.68 30.4C41.16 31.2533 44.36 32.72 46.28 34.8C48.2 36.88 49.16 39.36 49.16 42.24C49.16 44.5333 48.6 46.6933 47.48 48.72C46.4133 50.6933 44.9467 52.48 43.08 54.08C41.48 55.4667 39.3733 56.72 36.76 57.84C34.1467 58.9067 31.32 59.76 28.28 60.4C25.24 61.04 22.2267 61.36 19.24 61.36C16.7333 61.36 14.36 61.0667 12.12 60.48C9.88 59.9467 8.04 59.0667 6.6 57.84ZM16.36 57.84C17.1067 57.9467 17.8533 58.0267 18.6 58.08C19.3467 58.1333 20.0933 58.16 20.84 58.16C23.4533 58.16 26.0133 57.7867 28.52 57.04C31.0267 56.24 33.2133 54.9867 35.08 53.28C37 51.5733 38.36 49.3333 39.16 46.56C39.64 45.0133 39.88 43.44 39.88 41.84C39.88 39.3333 39.24 37.0933 37.96 35.12C36.7333 33.0933 34.7867 31.92 32.12 31.6C31.5333 31.76 30.6533 31.9467 29.48 32.16C28.3067 32.3733 27.08 32.56 25.8 32.72C24.52 32.88 23.4267 32.96 22.52 32.96C21.6667 32.96 21.24 32.7733 21.24 32.4C21.24 32.08 21.48 31.7067 21.96 31.28C22.44 30.8 22.9733 30.4 23.56 30.08C24.1467 29.7067 24.6267 29.4933 25 29.44C25.96 29.28 27.08 29.2 28.36 29.2C29.0533 29.2 29.7467 29.2267 30.44 29.28C31.1867 29.3333 31.96 29.4133 32.76 29.52C34.4667 28.9867 35.88 28.2667 37 27.36C38.12 26.4533 39.08 25.6 39.88 24.8C41.16 23.4667 42.1467 21.9467 42.84 20.24C43.5333 18.48 43.88 16.7733 43.88 15.12C43.88 12.9333 43.3467 11.2533 42.28 10.08C41.2667 8.85333 39.9067 7.97333 38.2 7.44C36.4933 6.90666 34.6533 6.61333 32.68 6.56C31.72 7.84 30.7067 9.36 29.64 11.12C28.6267 12.8267 27.6667 14.5867 26.76 16.4C25.8533 18.2133 25.0533 19.8933 24.36 21.44C22.8667 24.64 21.2933 28.1333 19.64 31.92C18.04 35.7067 16.7067 39.3867 15.64 42.96C15.1067 44.6133 14.5733 46.4 14.04 48.32C13.56 50.1867 13.32 51.8667 13.32 53.36C13.32 54.5333 13.5333 55.52 13.96 56.32C14.3867 57.12 15.1867 57.6267 16.36 57.84ZM76.6044 60.48C74.951 60.48 73.8044 59.84 73.1644 58.56C72.5777 57.28 72.2844 55.7067 72.2844 53.84C72.2844 52.1333 72.4444 50.4533 72.7644 48.8C72.9244 48.0533 73.0844 47.3067 73.2444 46.56C73.4577 45.76 73.6977 44.9333 73.9644 44.08C73.0577 45.7333 72.0977 47.3333 71.0844 48.88C70.1244 50.4267 69.1377 51.7867 68.1244 52.96C66.4177 55.04 64.6044 56.7733 62.6844 58.16C60.8177 59.5467 58.951 60.24 57.0844 60.24C55.591 60.24 54.311 59.7067 53.2444 58.64C52.231 57.52 51.7244 55.6 51.7244 52.88C51.7244 50.1067 52.2044 47.2533 53.1644 44.32C54.1244 41.3867 55.4577 38.6667 57.1644 36.16C58.9244 33.6 60.9777 31.5467 63.3244 30C65.7244 28.4533 68.3377 27.68 71.1644 27.68C72.071 27.68 73.0577 27.8133 74.1244 28.08C75.191 28.3467 76.1777 28.8533 77.0844 29.6C77.991 30.2933 78.6044 31.28 78.9244 32.56C78.9777 32.4533 79.031 32.3733 79.0844 32.32C79.191 32.2667 79.271 32.2133 79.3244 32.16C80.071 30.9867 80.9244 30 81.8844 29.2C82.8444 28.4 83.911 28 85.0844 28C85.671 28 86.4977 28.0267 87.5644 28.08C88.631 28.1333 89.4044 28.1333 89.8844 28.08C89.6177 28.2933 89.2444 28.72 88.7644 29.36C88.3377 30 87.9377 30.6667 87.5644 31.36C87.191 32 86.8977 32.5067 86.6844 32.88C85.2444 35.6533 83.9377 38.4 82.7644 41.12C81.591 43.84 80.6844 46.4533 80.0444 48.96C79.8844 49.4933 79.7777 50 79.7244 50.48C79.671 50.9067 79.6444 51.3333 79.6444 51.76C79.6444 53.1467 80.0977 53.84 81.0044 53.84C81.8577 53.84 82.9244 53.3067 84.2044 52.24C86.071 50.7467 87.6977 48.88 89.0844 46.64C90.5244 44.4 91.7777 42.24 92.8444 40.16C93.0577 39.7867 93.2444 39.6 93.4044 39.6C93.7244 39.6 93.8844 40.0533 93.8844 40.96C93.8844 41.3867 93.8044 41.8667 93.6444 42.4C93.5377 42.9333 93.351 43.44 93.0844 43.92C92.3377 45.2 91.351 46.7733 90.1244 48.64C88.951 50.5067 87.6177 52.3467 86.1244 54.16C84.631 55.92 83.0577 57.4133 81.4044 58.64C79.8044 59.8667 78.2044 60.48 76.6044 60.48ZM60.6844 53.52C60.8444 53.5733 61.0844 53.6 61.4044 53.6C62.4177 53.6 63.511 53.1733 64.6844 52.32C65.8577 51.4667 67.031 50.3733 68.2044 49.04C69.3777 47.6533 70.4177 46.2667 71.3244 44.88C73.671 41.1467 75.4044 38.3467 76.5244 36.48C77.6444 34.6133 78.2844 33.5467 78.4444 33.28C78.1777 32.3733 77.6977 31.7067 77.0044 31.28C76.3644 30.8533 75.591 30.64 74.6844 30.64C73.511 30.64 72.2577 30.96 70.9244 31.6C69.6444 32.24 68.551 33.0133 67.6444 33.92C66.2577 35.3067 64.9244 37.0933 63.6444 39.28C62.4177 41.4667 61.4044 43.6267 60.6044 45.76C59.8577 47.8933 59.4844 49.68 59.4844 51.12C59.4844 52.4533 59.8844 53.2533 60.6844 53.52ZM103.217 60.56C101.51 60.56 100.284 59.84 99.5369 58.4C98.9502 57.12 98.6569 55.6 98.6569 53.84C98.6569 51.8667 98.9502 49.68 99.5369 47.28C100.124 44.88 100.924 42.4267 101.937 39.92C102.31 39.0133 102.79 37.8667 103.377 36.48C104.017 35.0933 104.764 33.7333 105.617 32.4C104.87 33.04 103.99 33.5733 102.977 34C101.964 34.3733 100.977 34.56 100.017 34.56C99.2702 34.56 98.6569 34.4533 98.1769 34.24C97.7502 35.0933 97.0569 36.48 96.0969 38.4C95.1369 40.32 93.8569 42.5867 92.2569 45.2C92.0969 45.4667 91.9369 45.4667 91.7769 45.2C91.6702 44.88 91.6169 44.4533 91.6169 43.92C91.6169 43.4933 91.6702 43.04 91.7769 42.56C91.8835 42.08 92.0435 41.6267 92.2569 41.2C92.7902 40.1867 93.3235 39.1467 93.8569 38.08C94.3902 36.96 94.8702 35.9733 95.2969 35.12C95.7235 34.2667 95.9635 33.7333 96.0169 33.52C95.0569 33.04 94.3369 32.3733 93.8569 31.52C93.3769 30.6133 93.1369 29.7333 93.1369 28.88C93.1369 28.0267 93.3235 27.2533 93.6969 26.56C94.1235 25.8667 94.7369 25.3333 95.5369 24.96C96.0169 24.8 96.4702 24.72 96.8969 24.72C98.0702 24.72 99.0302 25.0933 99.7769 25.84C99.7235 26.0533 99.6702 26.2933 99.6169 26.56C99.6169 26.7733 99.6169 27.0133 99.6169 27.28C99.6169 28.9333 100.284 30.16 101.617 30.96C102.95 31.76 104.39 32.0533 105.937 31.84C106.684 30.7733 107.537 29.84 108.497 29.04C109.457 28.24 110.497 27.84 111.617 27.84C112.204 27.84 113.03 27.8667 114.097 27.92C115.217 27.9733 116.017 27.9733 116.497 27.92C116.177 28.1333 115.804 28.56 115.377 29.2C114.95 29.84 114.55 30.5067 114.177 31.2C113.804 31.8933 113.51 32.4267 113.297 32.8C111.857 35.5733 110.524 38.3467 109.297 41.12C108.07 43.84 107.137 46.4533 106.497 48.96C106.39 49.44 106.284 49.8933 106.177 50.32C106.124 50.6933 106.097 51.0933 106.097 51.52C106.097 53.12 106.63 53.92 107.697 53.92C108.444 53.92 109.51 53.3867 110.897 52.32C112.124 51.3067 113.217 50.1867 114.177 48.96C115.244 47.5733 116.257 46.08 117.217 44.48C118.177 42.88 119.004 41.4133 119.697 40.08C119.964 39.6533 120.15 39.44 120.257 39.44C120.577 39.44 120.737 39.92 120.737 40.88C120.737 41.2533 120.684 41.7067 120.577 42.24C120.47 42.7733 120.284 43.28 120.017 43.76C119.217 45.0933 118.31 46.56 117.297 48.16C116.284 49.7067 115.244 51.2267 114.177 52.72C113.484 53.68 112.497 54.7733 111.217 56C109.99 57.2267 108.657 58.2933 107.217 59.2C105.83 60.1067 104.497 60.56 103.217 60.56ZM155.198 61.92C150.718 61.1733 147.438 59.2267 145.358 56.08C143.331 52.9333 142.318 49.2 142.318 44.88C142.318 41.7333 142.825 38.4533 143.838 35.04C144.851 31.5733 146.291 28.1867 148.158 24.88C150.078 21.5733 152.371 18.5067 155.038 15.68C157.705 12.8 160.718 10.3467 164.078 8.32C167.438 6.29333 171.091 4.88 175.038 4.08C177.438 3.6 179.731 3.36 181.918 3.36C186.185 3.36 189.598 4.21333 192.158 5.92C194.718 7.57333 195.998 9.70666 195.998 12.32C195.998 12.8533 195.945 13.3867 195.838 13.92C195.785 14.4 195.625 14.9333 195.358 15.52C194.771 17.0667 193.785 18.4533 192.398 19.68C191.065 20.8533 189.518 21.76 187.758 22.4C186.051 23.04 184.291 23.3067 182.478 23.2C181.625 23.0933 180.878 22.8 180.238 22.32C179.651 21.7867 179.358 21.1467 179.358 20.4C179.358 19.6533 179.678 18.8533 180.318 18C180.905 18.2133 181.571 18.32 182.318 18.32C183.651 18.32 184.958 18 186.238 17.36C187.518 16.72 188.585 15.84 189.438 14.72C190.291 13.6 190.718 12.3467 190.718 10.96C190.718 9.09333 190.078 7.86667 188.798 7.28C187.518 6.64 186.078 6.32 184.478 6.32C183.411 6.32 182.345 6.42666 181.278 6.64C180.265 6.8 179.438 6.96 178.798 7.12C175.758 7.92 172.638 9.38667 169.438 11.52C166.291 13.6 163.411 16.16 160.798 19.2C158.185 22.1867 156.158 25.4667 154.718 29.04C153.651 31.6533 152.825 34.2933 152.238 36.96C151.651 39.6267 151.358 42.16 151.358 44.56C151.358 47.6533 151.865 50.3733 152.878 52.72C153.945 55.0667 155.625 56.6933 157.918 57.6C159.998 58.4 162.131 58.8 164.318 58.8C167.838 58.8 171.385 57.9467 174.958 56.24C178.585 54.5333 181.918 52.3733 184.958 49.76C186.825 48.1067 188.505 46.4 189.998 44.64C191.491 42.88 192.638 41.0133 193.438 39.04C194.451 39.68 194.958 40.6133 194.958 41.84C194.958 42.8 194.665 43.84 194.078 44.96C193.545 46.08 192.905 47.12 192.158 48.08C191.465 49.04 190.851 49.7867 190.318 50.32C186.585 54.2133 182.105 57.2 176.878 59.28C171.705 61.36 166.451 62.4 161.118 62.4C159.091 62.4 157.118 62.24 155.198 61.92ZM216.613 60.48C214.8 60.48 213.546 59.9467 212.853 58.88C212.213 57.76 211.893 56.48 211.893 55.04C211.893 53.4933 212.133 51.7067 212.613 49.68C213.146 47.6 213.786 45.4667 214.533 43.28C215.333 41.04 216.133 38.96 216.933 37.04C217.2 36.4 217.44 35.7067 217.653 34.96C217.92 34.2133 218.053 33.5467 218.053 32.96C218.053 31.8933 217.573 31.36 216.613 31.36C216.24 31.36 215.813 31.44 215.333 31.6C214.853 31.7067 214.293 31.9467 213.653 32.32C212.533 32.8533 211.466 33.6 210.453 34.56C209.44 35.4667 208.746 36.16 208.373 36.64C207.68 37.4933 207.013 38.4533 206.373 39.52C205.733 40.5333 205.173 41.5733 204.693 42.64C203.626 44.9333 202.773 47.12 202.133 49.2C201.546 51.2267 200.986 52.96 200.453 54.4C200.133 55.3067 199.813 56.24 199.493 57.2C199.173 58.16 198.88 59.0933 198.613 60H190.853C190.853 60 191.04 59.3333 191.413 58C191.786 56.6667 192.24 55.3333 192.773 54C195.226 47.6533 197.546 41.1733 199.733 34.56C201.92 27.9467 204.56 21.6 207.653 15.52C209.04 12.8 210.533 10.2933 212.133 8C213.786 5.70666 215.52 3.89333 217.333 2.56C219.2 1.17333 221.146 0.479999 223.173 0.479999C224.773 0.479999 225.866 0.853332 226.453 1.6C227.093 2.29333 227.413 3.17333 227.413 4.24C227.413 5.41333 227.173 6.64 226.693 7.92C226.213 9.2 225.733 10.2933 225.253 11.2C224.293 13.12 223.04 15.28 221.493 17.68C219.946 20.08 218.32 22.32 216.613 24.4C216.24 24.88 215.6 25.6533 214.693 26.72C213.786 27.7333 212.853 28.7733 211.893 29.84C210.986 30.9067 210.266 31.7333 209.733 32.32C211.493 31.04 213.013 30.0533 214.293 29.36C215.573 28.6667 216.666 28.1867 217.573 27.92C219.12 27.4933 220.4 27.28 221.413 27.28C224.453 27.28 225.973 28.6133 225.973 31.28C225.973 32.4 225.653 33.7333 225.013 35.28C224.693 36.1333 224.24 37.28 223.653 38.72C223.066 40.16 222.453 41.7067 221.813 43.36C221.226 44.96 220.72 46.5067 220.293 48C219.92 49.4933 219.733 50.72 219.733 51.68C219.733 52.2667 219.813 52.8 219.973 53.28C220.186 53.7067 220.56 53.92 221.093 53.92C221.466 53.92 222 53.7333 222.693 53.36C224.186 52.5067 225.573 51.3067 226.853 49.76C228.186 48.2133 229.36 46.56 230.373 44.8C231.44 43.04 232.346 41.44 233.093 40C233.253 39.6267 233.44 39.44 233.653 39.44C233.92 39.44 234.053 39.8933 234.053 40.8C234.053 41.2267 234 41.7333 233.893 42.32C233.786 42.8533 233.573 43.3867 233.253 43.92C232.506 45.2 231.52 46.7733 230.293 48.64C229.12 50.5067 227.786 52.3467 226.293 54.16C224.8 55.92 223.226 57.4133 221.573 58.64C219.92 59.8667 218.266 60.48 216.613 60.48ZM207.413 31.76C210.08 28.6133 212.773 25.2533 215.493 21.68C218.266 18.0533 220.56 14.3733 222.373 10.64C222.48 10.3733 222.72 9.84 223.093 9.04C223.466 8.24 223.813 7.36 224.133 6.4C224.453 5.38667 224.613 4.53333 224.613 3.84C224.613 2.93333 224.266 2.48 223.573 2.48C222.88 2.48 222.053 2.96 221.093 3.92C220.186 4.88 219.253 6.16 218.293 7.76C217.066 9.78666 215.813 12.1333 214.533 14.8C213.253 17.4133 212 20.1867 210.773 23.12C209.6 26.0533 208.48 28.9333 207.413 31.76ZM243.451 60.56C241.745 60.56 240.518 59.84 239.771 58.4C239.185 57.12 238.891 55.6 238.891 53.84C238.891 51.8667 239.185 49.68 239.771 47.28C240.358 44.88 241.158 42.4267 242.171 39.92C242.545 39.0133 243.025 37.8667 243.611 36.48C244.251 35.0933 244.998 33.7333 245.851 32.4C245.105 33.04 244.225 33.5733 243.211 34C242.198 34.3733 241.211 34.56 240.251 34.56C239.505 34.56 238.891 34.4533 238.411 34.24C237.985 35.0933 237.291 36.48 236.331 38.4C235.371 40.32 234.091 42.5867 232.491 45.2C232.331 45.4667 232.171 45.4667 232.011 45.2C231.905 44.88 231.851 44.4533 231.851 43.92C231.851 43.4933 231.905 43.04 232.011 42.56C232.118 42.08 232.278 41.6267 232.491 41.2C233.025 40.1867 233.558 39.1467 234.091 38.08C234.625 36.96 235.105 35.9733 235.531 35.12C235.958 34.2667 236.198 33.7333 236.251 33.52C235.291 33.04 234.571 32.3733 234.091 31.52C233.611 30.6133 233.371 29.7333 233.371 28.88C233.371 28.0267 233.558 27.2533 233.931 26.56C234.358 25.8667 234.971 25.3333 235.771 24.96C236.251 24.8 236.705 24.72 237.131 24.72C238.305 24.72 239.265 25.0933 240.011 25.84C239.958 26.0533 239.905 26.2933 239.851 26.56C239.851 26.7733 239.851 27.0133 239.851 27.28C239.851 28.9333 240.518 30.16 241.851 30.96C243.185 31.76 244.625 32.0533 246.171 31.84C246.918 30.7733 247.771 29.84 248.731 29.04C249.691 28.24 250.731 27.84 251.851 27.84C252.438 27.84 253.265 27.8667 254.331 27.92C255.451 27.9733 256.251 27.9733 256.731 27.92C256.411 28.1333 256.038 28.56 255.611 29.2C255.185 29.84 254.785 30.5067 254.411 31.2C254.038 31.8933 253.745 32.4267 253.531 32.8C252.091 35.5733 250.758 38.3467 249.531 41.12C248.305 43.84 247.371 46.4533 246.731 48.96C246.625 49.44 246.518 49.8933 246.411 50.32C246.358 50.6933 246.331 51.0933 246.331 51.52C246.331 53.12 246.865 53.92 247.931 53.92C248.678 53.92 249.745 53.3867 251.131 52.32C252.358 51.3067 253.451 50.1867 254.411 48.96C255.478 47.5733 256.491 46.08 257.451 44.48C258.411 42.88 259.238 41.4133 259.931 40.08C260.198 39.6533 260.385 39.44 260.491 39.44C260.811 39.44 260.971 39.92 260.971 40.88C260.971 41.2533 260.918 41.7067 260.811 42.24C260.705 42.7733 260.518 43.28 260.251 43.76C259.451 45.0933 258.545 46.56 257.531 48.16C256.518 49.7067 255.478 51.2267 254.411 52.72C253.718 53.68 252.731 54.7733 251.451 56C250.225 57.2267 248.891 58.2933 247.451 59.2C246.065 60.1067 244.731 60.56 243.451 60.56ZM266.168 60.64C263.715 60.64 261.581 59.8667 259.768 58.32C258.008 56.7733 257.128 54.2933 257.128 50.88C257.128 48.3733 257.581 45.76 258.488 43.04C259.395 40.32 260.675 37.7867 262.328 35.44C264.035 33.0933 266.088 31.1733 268.488 29.68C270.888 28.1867 273.581 27.44 276.568 27.44C279.021 27.44 280.915 27.92 282.248 28.88C283.635 29.7867 284.621 31.0133 285.208 32.56C285.795 34.1067 286.088 35.76 286.088 37.52C286.088 38.8533 285.928 40.2133 285.608 41.6C285.341 42.9333 284.941 44.2667 284.408 45.6C285.315 46.6667 286.461 47.2 287.848 47.2C289.341 47.2 290.728 46.64 292.008 45.52C292.755 44.88 293.421 44.08 294.008 43.12C294.648 42.1067 295.208 41.1733 295.688 40.32C295.848 40 296.035 39.84 296.248 39.84C296.515 39.84 296.648 40.2133 296.648 40.96C296.648 41.44 296.568 42 296.408 42.64C296.301 43.28 296.035 43.92 295.608 44.56C294.808 45.9467 293.981 47.0133 293.128 47.76C292.275 48.4533 291.315 49.0133 290.248 49.44C289.448 49.76 288.595 49.92 287.688 49.92C286.035 49.92 284.541 49.4133 283.208 48.4C282.781 49.3067 282.248 50.24 281.608 51.2C280.061 53.8133 278.061 56.0533 275.608 57.92C273.155 59.7333 270.008 60.64 266.168 60.64ZM269.208 57.6C270.435 57.6 271.608 57.2 272.728 56.4C273.901 55.5467 274.968 54.5067 275.928 53.28C276.888 52.0533 277.715 50.7733 278.408 49.44C279.155 48.1067 279.768 46.9333 280.248 45.92C278.435 44.3733 277.528 42.4267 277.528 40.08C277.528 38.5333 277.955 37.3333 278.808 36.48C279.661 35.6267 280.835 35.2533 282.328 35.36C282.275 34.1333 281.955 33.12 281.368 32.32C280.781 31.52 279.821 31.12 278.488 31.12C277.261 31.12 276.088 31.4933 274.968 32.24C273.901 32.9867 272.888 33.9467 271.928 35.12C271.021 36.24 270.195 37.4133 269.448 38.64C268.755 39.8133 268.168 40.88 267.688 41.84C266.995 43.2267 266.355 44.9067 265.768 46.88C265.181 48.8533 264.888 50.6933 264.888 52.4C264.888 53.8933 265.181 55.1467 265.768 56.16C266.408 57.12 267.555 57.6 269.208 57.6ZM332.586 60.48C330.772 60.48 329.519 59.9467 328.826 58.88C328.186 57.76 327.866 56.48 327.866 55.04C327.866 53.4933 328.106 51.7067 328.586 49.68C329.119 47.6 329.759 45.4667 330.506 43.28C331.306 41.04 332.106 38.96 332.906 37.04C333.172 36.4 333.412 35.7067 333.626 34.96C333.892 34.2133 334.026 33.5467 334.026 32.96C334.026 31.8933 333.546 31.36 332.586 31.36C332.212 31.36 331.786 31.44 331.306 31.6C330.826 31.7067 330.266 31.9467 329.626 32.32C328.506 32.8533 327.439 33.6 326.426 34.56C325.412 35.4667 324.692 36.16 324.266 36.64C322.239 39.2533 320.692 42.08 319.626 45.12C318.612 48.16 317.546 51.2533 316.426 54.4C316.106 55.3067 315.786 56.24 315.466 57.2C315.146 58.16 314.852 59.0933 314.586 60H306.746C307.652 57.44 308.559 54.9067 309.466 52.4C310.426 49.84 311.386 47.3067 312.346 44.8C312.932 43.36 313.466 41.9733 313.946 40.64C314.426 39.2533 314.852 37.9733 315.226 36.8C315.439 36.2133 315.626 35.6 315.786 34.96C315.946 34.32 316.026 33.7333 316.026 33.2C316.026 31.9733 315.492 31.36 314.426 31.36C314.052 31.36 313.599 31.44 313.066 31.6C312.586 31.7067 311.999 31.9467 311.306 32.32C310.186 32.8533 309.119 33.6 308.106 34.56C307.092 35.4667 306.399 36.16 306.026 36.64C305.332 37.4933 304.666 38.4533 304.026 39.52C303.386 40.5333 302.826 41.5733 302.346 42.64C301.279 44.9333 300.426 47.12 299.786 49.2C299.199 51.2267 298.639 52.96 298.106 54.4C297.786 55.3067 297.466 56.24 297.146 57.2C296.826 58.16 296.532 59.0933 296.266 60H288.506C288.506 60 288.692 59.3333 289.066 58C289.439 56.6667 289.892 55.3333 290.426 54L295.626 40.72C295.786 40.2933 296.026 39.6 296.346 38.64C296.719 37.6267 297.092 36.5333 297.466 35.36C297.839 34.1333 298.159 32.96 298.426 31.84C298.692 30.6667 298.826 29.7067 298.826 28.96C298.826 28.48 298.772 28.16 298.666 28C299.146 28 299.679 28 300.266 28C300.906 27.9467 301.492 27.92 302.026 27.92C302.772 27.92 303.466 27.9467 304.106 28C304.799 28.0533 305.252 28.1867 305.466 28.4C306.052 28.8267 306.346 29.4667 306.346 30.32C306.346 31.0133 306.212 31.7067 305.946 32.4C305.679 33.04 305.492 33.5733 305.386 34C306.132 33.3067 306.959 32.64 307.866 32C308.772 31.36 310.079 30.5333 311.786 29.52C312.852 28.9333 314.106 28.4533 315.546 28.08C316.986 27.7067 318.292 27.52 319.466 27.52C322.292 27.52 323.706 28.6933 323.706 31.04C323.706 32 323.412 33.28 322.826 34.88C323.946 33.76 325.092 32.8 326.266 32C327.492 31.1467 328.772 30.32 330.106 29.52C331.172 28.9333 332.426 28.4533 333.866 28.08C335.306 27.7067 336.612 27.52 337.786 27.52C340.612 27.52 342.026 28.72 342.026 31.12C342.026 31.6533 341.919 32.2667 341.706 32.96C341.546 33.6533 341.306 34.4267 340.986 35.28C340.666 36.1333 340.212 37.3067 339.626 38.8C339.039 40.24 338.426 41.7867 337.786 43.44C337.199 45.04 336.692 46.5867 336.266 48.08C335.892 49.52 335.706 50.72 335.706 51.68C335.706 52.2667 335.786 52.8 335.946 53.28C336.159 53.7067 336.532 53.92 337.066 53.92C337.439 53.92 337.972 53.7333 338.666 53.36C339.626 52.7733 340.586 52 341.546 51.04C342.506 50.08 343.146 49.3867 343.466 48.96C344.532 47.5733 345.546 46.1067 346.506 44.56C347.466 42.96 348.292 41.4933 348.986 40.16C349.252 39.7333 349.439 39.52 349.546 39.52C349.866 39.52 350.026 39.9733 350.026 40.88C350.026 41.3067 349.946 41.8133 349.786 42.4C349.679 42.9333 349.492 43.44 349.226 43.92C348.479 45.2 347.599 46.6133 346.586 48.16C345.572 49.7067 344.532 51.2 343.466 52.64C342.719 53.6533 341.732 54.7733 340.506 56C339.279 57.2267 337.972 58.2933 336.586 59.2C335.199 60.0533 333.866 60.48 332.586 60.48ZM364.829 58.88C362.375 60.16 359.789 60.8 357.069 60.8C354.775 60.8 352.642 60.24 350.669 59.12C348.695 58 347.362 56.2133 346.669 53.76C346.349 52.64 346.189 51.4667 346.189 50.24C346.189 48.2133 346.535 46.1333 347.229 44C347.975 41.8133 348.935 39.8133 350.109 38C351.922 35.1733 354.215 32.8267 356.989 30.96C359.762 29.0933 362.829 28.16 366.189 28.16C368.695 28.16 370.642 28.8 372.029 30.08C373.415 31.36 374.109 32.8533 374.109 34.56C374.109 36.5867 373.415 38.3733 372.029 39.92C370.695 41.4133 368.935 42.56 366.749 43.36C365.682 43.7333 364.535 44.0267 363.309 44.24C362.135 44.4 361.015 44.48 359.949 44.48C357.762 44.48 356.082 44.1867 354.909 43.6C353.895 46.2133 353.389 48.6133 353.389 50.8C353.389 52.7733 353.842 54.4 354.749 55.68C355.655 56.9067 357.095 57.52 359.069 57.52C360.722 57.52 362.349 57.0667 363.949 56.16C365.602 55.2533 367.122 54.1333 368.509 52.8C369.949 51.4667 371.149 50.1867 372.109 48.96C372.855 48.0533 373.495 47.2 374.029 46.4C374.562 45.6 375.122 44.6933 375.709 43.68C376.295 42.6133 376.989 41.3067 377.789 39.76C378.002 39.3867 378.189 39.2 378.349 39.2C378.669 39.2 378.829 39.6267 378.829 40.48C378.829 40.96 378.749 41.4933 378.589 42.08C378.482 42.6133 378.269 43.1733 377.949 43.76C377.202 45.0933 376.295 46.56 375.229 48.16C374.215 49.7067 373.175 51.2 372.109 52.64C371.149 53.92 370.055 55.0933 368.829 56.16C367.602 57.2267 366.269 58.1333 364.829 58.88ZM357.549 41.84C357.815 42 358.109 42.1067 358.429 42.16C358.749 42.2133 359.069 42.24 359.389 42.24C360.455 42.24 361.522 42 362.589 41.52C363.655 40.9867 364.562 40.4533 365.309 39.92C366.535 39.0667 367.575 38.0533 368.429 36.88C369.282 35.7067 369.762 34.3733 369.869 32.88C369.922 32.24 369.762 31.7067 369.389 31.28C369.069 30.8 368.482 30.56 367.629 30.56C367.202 30.56 366.669 30.64 366.029 30.8C365.175 31.0133 364.322 31.4133 363.469 32C362.615 32.5867 361.789 33.28 360.989 34.08C360.722 34.3467 360.242 34.88 359.549 35.68C358.909 36.4267 358.295 37.28 357.709 38.24C357.122 39.1467 356.829 39.9467 356.829 40.64C356.829 41.2267 357.069 41.6267 357.549 41.84Z" fill="black"/>
</svg>
