<svg width="114" height="19" viewBox="0 0 114 19" fill="none" xmlns="http://www.w3.org/2000/svg">
<path d="M2.08 17.352C1.872 17.176 1.728 16.96 1.648 16.704C1.568 16.448 1.528 16.168 1.528 15.864C1.528 15.672 1.536 15.48 1.552 15.288C1.584 15.08 1.616 14.872 1.648 14.664C1.776 14.024 1.992 13.264 2.296 12.384C2.616 11.504 2.976 10.584 3.376 9.624C3.792 8.664 4.208 7.736 4.624 6.84C5.056 5.928 5.44 5.128 5.776 4.44C6.128 3.736 6.392 3.216 6.568 2.88C6.632 2.752 6.688 2.632 6.736 2.52C6.8 2.408 6.864 2.304 6.928 2.208L6.064 2.328C5.344 2.424 4.6 2.576 3.832 2.784C3.08 2.992 2.4 3.264 1.792 3.6C1.2 3.92 0.768 4.312 0.496 4.776C0.48 4.824 0.448 4.848 0.4 4.848C0.368 4.848 0.344 4.816 0.328 4.752C0.296 4.688 0.288 4.616 0.304 4.536C0.464 4.12 0.664 3.72 0.904 3.336C1.144 2.952 1.376 2.648 1.6 2.424C1.952 2.056 2.432 1.792 3.04 1.632C3.648 1.472 4.272 1.368 4.912 1.32C5.568 1.272 6.128 1.248 6.592 1.248H11.32C12.424 1.248 13.304 1.416 13.96 1.752C14.632 2.088 15.112 2.536 15.4 3.096C15.688 3.64 15.8 4.224 15.736 4.848C15.672 5.52 15.48 6.104 15.16 6.6C14.84 7.096 14.44 7.52 13.96 7.872C13.496 8.208 13.008 8.48 12.496 8.688C12 8.88 11.536 9.024 11.104 9.12C12.448 9.376 13.408 9.816 13.984 10.44C14.56 11.064 14.848 11.808 14.848 12.672C14.848 13.36 14.68 14.008 14.344 14.616C14.024 15.208 13.584 15.744 13.024 16.224C12.544 16.64 11.912 17.016 11.128 17.352C10.344 17.672 9.496 17.928 8.584 18.12C7.672 18.312 6.768 18.408 5.872 18.408C5.12 18.408 4.408 18.32 3.736 18.144C3.064 17.984 2.512 17.72 2.08 17.352ZM5.008 17.352C5.232 17.384 5.456 17.408 5.68 17.424C5.904 17.44 6.128 17.448 6.352 17.448C7.136 17.448 7.904 17.336 8.656 17.112C9.408 16.872 10.064 16.496 10.624 15.984C11.2 15.472 11.608 14.8 11.848 13.968C11.992 13.504 12.064 13.032 12.064 12.552C12.064 11.8 11.872 11.128 11.488 10.536C11.12 9.928 10.536 9.576 9.736 9.48C9.56 9.528 9.296 9.584 8.944 9.648C8.592 9.712 8.224 9.768 7.84 9.816C7.456 9.864 7.128 9.888 6.856 9.888C6.6 9.888 6.472 9.832 6.472 9.72C6.472 9.624 6.544 9.512 6.688 9.384C6.832 9.24 6.992 9.12 7.168 9.024C7.344 8.912 7.488 8.848 7.6 8.832C7.888 8.784 8.224 8.76 8.608 8.76C8.816 8.76 9.024 8.768 9.232 8.784C9.456 8.8 9.688 8.824 9.928 8.856C10.44 8.696 10.864 8.48 11.2 8.208C11.536 7.936 11.824 7.68 12.064 7.44C12.448 7.04 12.744 6.584 12.952 6.072C13.16 5.544 13.264 5.032 13.264 4.536C13.264 3.88 13.104 3.376 12.784 3.024C12.48 2.656 12.072 2.392 11.56 2.232C11.048 2.072 10.496 1.984 9.904 1.968C9.616 2.352 9.312 2.808 8.992 3.336C8.688 3.848 8.4 4.376 8.128 4.92C7.856 5.464 7.616 5.968 7.408 6.432C6.96 7.392 6.488 8.44 5.992 9.576C5.512 10.712 5.112 11.816 4.792 12.888C4.632 13.384 4.472 13.92 4.312 14.496C4.168 15.056 4.096 15.56 4.096 16.008C4.096 16.36 4.16 16.656 4.288 16.896C4.416 17.136 4.656 17.288 5.008 17.352ZM23.0813 18.144C22.5853 18.144 22.2413 17.952 22.0493 17.568C21.8733 17.184 21.7853 16.712 21.7853 16.152C21.7853 15.64 21.8333 15.136 21.9293 14.64C21.9773 14.416 22.0253 14.192 22.0733 13.968C22.1373 13.728 22.2093 13.48 22.2893 13.224C22.0173 13.72 21.7293 14.2 21.4253 14.664C21.1373 15.128 20.8413 15.536 20.5373 15.888C20.0253 16.512 19.4813 17.032 18.9053 17.448C18.3453 17.864 17.7853 18.072 17.2253 18.072C16.7773 18.072 16.3933 17.912 16.0733 17.592C15.7693 17.256 15.6173 16.68 15.6173 15.864C15.6173 15.032 15.7613 14.176 16.0493 13.296C16.3373 12.416 16.7373 11.6 17.2493 10.848C17.7773 10.08 18.3933 9.464 19.0973 9C19.8173 8.536 20.6013 8.304 21.4493 8.304C21.7213 8.304 22.0173 8.344 22.3373 8.424C22.6573 8.504 22.9533 8.656 23.2253 8.88C23.4973 9.088 23.6813 9.384 23.7773 9.768C23.7933 9.736 23.8093 9.712 23.8253 9.696C23.8573 9.68 23.8813 9.664 23.8973 9.648C24.1213 9.296 24.3773 9 24.6653 8.76C24.9533 8.52 25.2733 8.4 25.6253 8.4C25.8013 8.4 26.0493 8.408 26.3693 8.424C26.6893 8.44 26.9213 8.44 27.0653 8.424C26.9853 8.488 26.8733 8.616 26.7293 8.808C26.6013 9 26.4813 9.2 26.3693 9.408C26.2573 9.6 26.1693 9.752 26.1053 9.864C25.6733 10.696 25.2813 11.52 24.9293 12.336C24.5773 13.152 24.3053 13.936 24.1133 14.688C24.0653 14.848 24.0333 15 24.0173 15.144C24.0013 15.272 23.9933 15.4 23.9933 15.528C23.9933 15.944 24.1293 16.152 24.4013 16.152C24.6573 16.152 24.9773 15.992 25.3613 15.672C25.9213 15.224 26.4093 14.664 26.8253 13.992C27.2573 13.32 27.6333 12.672 27.9533 12.048C28.0173 11.936 28.0733 11.88 28.1213 11.88C28.2173 11.88 28.2653 12.016 28.2653 12.288C28.2653 12.416 28.2413 12.56 28.1933 12.72C28.1613 12.88 28.1053 13.032 28.0253 13.176C27.8013 13.56 27.5053 14.032 27.1373 14.592C26.7853 15.152 26.3853 15.704 25.9373 16.248C25.4893 16.776 25.0173 17.224 24.5213 17.592C24.0413 17.96 23.5613 18.144 23.0813 18.144ZM18.3053 16.056C18.3533 16.072 18.4253 16.08 18.5213 16.08C18.8253 16.08 19.1533 15.952 19.5053 15.696C19.8573 15.44 20.2093 15.112 20.5613 14.712C20.9133 14.296 21.2253 13.88 21.4973 13.464C22.2013 12.344 22.7213 11.504 23.0573 10.944C23.3933 10.384 23.5853 10.064 23.6333 9.984C23.5533 9.712 23.4093 9.512 23.2013 9.384C23.0093 9.256 22.7773 9.192 22.5053 9.192C22.1533 9.192 21.7773 9.288 21.3773 9.48C20.9933 9.672 20.6653 9.904 20.3933 10.176C19.9773 10.592 19.5773 11.128 19.1933 11.784C18.8253 12.44 18.5213 13.088 18.2813 13.728C18.0573 14.368 17.9453 14.904 17.9453 15.336C17.9453 15.736 18.0653 15.976 18.3053 16.056ZM31.0651 18.168C30.5531 18.168 30.1851 17.952 29.9611 17.52C29.7851 17.136 29.6971 16.68 29.6971 16.152C29.6971 15.56 29.7851 14.904 29.9611 14.184C30.1371 13.464 30.3771 12.728 30.6811 11.976C30.7931 11.704 30.9371 11.36 31.1131 10.944C31.3051 10.528 31.5291 10.12 31.7851 9.72C31.5611 9.912 31.2971 10.072 30.9931 10.2C30.6891 10.312 30.3931 10.368 30.1051 10.368C29.8811 10.368 29.6971 10.336 29.5531 10.272C29.4251 10.528 29.2171 10.944 28.9291 11.52C28.6411 12.096 28.2571 12.776 27.7771 13.56C27.7291 13.64 27.6811 13.64 27.6331 13.56C27.6011 13.464 27.5851 13.336 27.5851 13.176C27.5851 13.048 27.6011 12.912 27.6331 12.768C27.6651 12.624 27.7131 12.488 27.7771 12.36C27.9371 12.056 28.0971 11.744 28.2571 11.424C28.4171 11.088 28.5611 10.792 28.6891 10.536C28.8171 10.28 28.8891 10.12 28.9051 10.056C28.6171 9.912 28.4011 9.712 28.2571 9.456C28.1131 9.184 28.0411 8.92 28.0411 8.664C28.0411 8.408 28.0971 8.176 28.2091 7.968C28.3371 7.76 28.5211 7.6 28.7611 7.488C28.9051 7.44 29.0411 7.416 29.1691 7.416C29.5211 7.416 29.8091 7.528 30.0331 7.752C30.0171 7.816 30.0011 7.888 29.9851 7.968C29.9851 8.032 29.9851 8.104 29.9851 8.184C29.9851 8.68 30.1851 9.048 30.5851 9.288C30.9851 9.528 31.4171 9.616 31.8811 9.552C32.1051 9.232 32.3611 8.952 32.6491 8.712C32.9371 8.472 33.2491 8.352 33.5851 8.352C33.7611 8.352 34.0091 8.36 34.3291 8.376C34.6651 8.392 34.9051 8.392 35.0491 8.376C34.9531 8.44 34.8411 8.568 34.7131 8.76C34.5851 8.952 34.4651 9.152 34.3531 9.36C34.2411 9.568 34.1531 9.728 34.0891 9.84C33.6571 10.672 33.2571 11.504 32.8891 12.336C32.5211 13.152 32.2411 13.936 32.0491 14.688C32.0171 14.832 31.9851 14.968 31.9531 15.096C31.9371 15.208 31.9291 15.328 31.9291 15.456C31.9291 15.936 32.0891 16.176 32.4091 16.176C32.6331 16.176 32.9531 16.016 33.3691 15.696C33.7371 15.392 34.0651 15.056 34.3531 14.688C34.6731 14.272 34.9771 13.824 35.2651 13.344C35.5531 12.864 35.8011 12.424 36.0091 12.024C36.0891 11.896 36.1451 11.832 36.1771 11.832C36.2731 11.832 36.3211 11.976 36.3211 12.264C36.3211 12.376 36.3051 12.512 36.2731 12.672C36.2411 12.832 36.1851 12.984 36.1051 13.128C35.8651 13.528 35.5931 13.968 35.2891 14.448C34.9851 14.912 34.6731 15.368 34.3531 15.816C34.1451 16.104 33.8491 16.432 33.4651 16.8C33.0971 17.168 32.6971 17.488 32.2651 17.76C31.8491 18.032 31.4491 18.168 31.0651 18.168ZM46.6594 18.576C45.3154 18.352 44.3314 17.768 43.7074 16.824C43.0994 15.88 42.7954 14.76 42.7954 13.464C42.7954 12.52 42.9474 11.536 43.2514 10.512C43.5554 9.472 43.9874 8.456 44.5474 7.464C45.1234 6.472 45.8114 5.552 46.6114 4.704C47.4114 3.84 48.3154 3.104 49.3234 2.496C50.3314 1.888 51.4274 1.464 52.6114 1.224C53.3314 1.08 54.0194 1.008 54.6754 1.008C55.9554 1.008 56.9794 1.264 57.7474 1.776C58.5154 2.272 58.8994 2.912 58.8994 3.696C58.8994 3.856 58.8834 4.016 58.8514 4.176C58.8354 4.32 58.7874 4.48 58.7074 4.656C58.5314 5.12 58.2354 5.536 57.8194 5.904C57.4194 6.256 56.9554 6.528 56.4274 6.72C55.9154 6.912 55.3874 6.992 54.8434 6.96C54.5874 6.928 54.3634 6.84 54.1714 6.696C53.9954 6.536 53.9074 6.344 53.9074 6.12C53.9074 5.896 54.0034 5.656 54.1954 5.4C54.3714 5.464 54.5714 5.496 54.7954 5.496C55.1954 5.496 55.5874 5.4 55.9714 5.208C56.3554 5.016 56.6754 4.752 56.9314 4.416C57.1874 4.08 57.3154 3.704 57.3154 3.288C57.3154 2.728 57.1234 2.36 56.7394 2.184C56.3554 1.992 55.9234 1.896 55.4434 1.896C55.1234 1.896 54.8034 1.928 54.4834 1.992C54.1794 2.04 53.9314 2.088 53.7394 2.136C52.8274 2.376 51.8914 2.816 50.9314 3.456C49.9874 4.08 49.1234 4.848 48.3394 5.76C47.5554 6.656 46.9474 7.64 46.5154 8.712C46.1954 9.496 45.9474 10.288 45.7714 11.088C45.5954 11.888 45.5074 12.648 45.5074 13.368C45.5074 14.296 45.6594 15.112 45.9634 15.816C46.2834 16.52 46.7874 17.008 47.4754 17.28C48.0994 17.52 48.7394 17.64 49.3954 17.64C50.4514 17.64 51.5154 17.384 52.5874 16.872C53.6754 16.36 54.6754 15.712 55.5874 14.928C56.1474 14.432 56.6514 13.92 57.0994 13.392C57.5474 12.864 57.8914 12.304 58.1314 11.712C58.4354 11.904 58.5874 12.184 58.5874 12.552C58.5874 12.84 58.4994 13.152 58.3234 13.488C58.1634 13.824 57.9714 14.136 57.7474 14.424C57.5394 14.712 57.3554 14.936 57.1954 15.096C56.0754 16.264 54.7314 17.16 53.1634 17.784C51.6114 18.408 50.0354 18.72 48.4354 18.72C47.8274 18.72 47.2354 18.672 46.6594 18.576ZM65.0839 18.144C64.5399 18.144 64.1639 17.984 63.9559 17.664C63.7639 17.328 63.6679 16.944 63.6679 16.512C63.6679 16.048 63.7399 15.512 63.8839 14.904C64.0439 14.28 64.2359 13.64 64.4599 12.984C64.6999 12.312 64.9399 11.688 65.1799 11.112C65.2599 10.92 65.3319 10.712 65.3959 10.488C65.4759 10.264 65.5159 10.064 65.5159 9.888C65.5159 9.568 65.3719 9.408 65.0839 9.408C64.9719 9.408 64.8439 9.432 64.6999 9.48C64.5559 9.512 64.3879 9.584 64.1959 9.696C63.8599 9.856 63.5399 10.08 63.2359 10.368C62.9319 10.64 62.7239 10.848 62.6119 10.992C62.4039 11.248 62.2039 11.536 62.0119 11.856C61.8199 12.16 61.6519 12.472 61.5079 12.792C61.1879 13.48 60.9319 14.136 60.7399 14.76C60.5639 15.368 60.3959 15.888 60.2359 16.32C60.1399 16.592 60.0439 16.872 59.9479 17.16C59.8519 17.448 59.7639 17.728 59.6839 18H57.3559C57.3559 18 57.4119 17.8 57.5239 17.4C57.6359 17 57.7719 16.6 57.9319 16.2C58.6679 14.296 59.3639 12.352 60.0199 10.368C60.6759 8.384 61.4679 6.48 62.3959 4.656C62.8119 3.84 63.2599 3.088 63.7399 2.4C64.2359 1.712 64.7559 1.168 65.2999 0.767999C65.8599 0.351999 66.4439 0.144 67.0519 0.144C67.5319 0.144 67.8599 0.256 68.0359 0.48C68.2279 0.688 68.3239 0.952 68.3239 1.272C68.3239 1.624 68.2519 1.992 68.1079 2.376C67.9639 2.76 67.8199 3.088 67.6759 3.36C67.3879 3.936 67.0119 4.584 66.5479 5.304C66.0839 6.024 65.5959 6.696 65.0839 7.32C64.9719 7.464 64.7799 7.696 64.5079 8.016C64.2359 8.32 63.9559 8.632 63.6679 8.952C63.3959 9.272 63.1799 9.52 63.0199 9.696C63.5479 9.312 64.0039 9.016 64.3879 8.808C64.7719 8.6 65.0999 8.456 65.3719 8.376C65.8359 8.248 66.2199 8.184 66.5239 8.184C67.4359 8.184 67.8919 8.584 67.8919 9.384C67.8919 9.72 67.7959 10.12 67.6039 10.584C67.5079 10.84 67.3719 11.184 67.1959 11.616C67.0199 12.048 66.8359 12.512 66.6439 13.008C66.4679 13.488 66.3159 13.952 66.1879 14.4C66.0759 14.848 66.0199 15.216 66.0199 15.504C66.0199 15.68 66.0439 15.84 66.0919 15.984C66.1559 16.112 66.2679 16.176 66.4279 16.176C66.5399 16.176 66.6999 16.12 66.9079 16.008C67.3559 15.752 67.7719 15.392 68.1559 14.928C68.5559 14.464 68.9079 13.968 69.2119 13.44C69.5319 12.912 69.8039 12.432 70.0279 12C70.0759 11.888 70.1319 11.832 70.1959 11.832C70.2759 11.832 70.3159 11.968 70.3159 12.24C70.3159 12.368 70.2999 12.52 70.2679 12.696C70.2359 12.856 70.1719 13.016 70.0759 13.176C69.8519 13.56 69.5559 14.032 69.1879 14.592C68.8359 15.152 68.4359 15.704 67.9879 16.248C67.5399 16.776 67.0679 17.224 66.5719 17.592C66.0759 17.96 65.5799 18.144 65.0839 18.144ZM62.3239 9.528C63.1239 8.584 63.9319 7.576 64.7479 6.504C65.5799 5.416 66.2679 4.312 66.8119 3.192C66.8439 3.112 66.9159 2.952 67.0279 2.712C67.1399 2.472 67.2439 2.208 67.3399 1.92C67.4359 1.616 67.4839 1.36 67.4839 1.152C67.4839 0.879999 67.3799 0.743999 67.1719 0.743999C66.9639 0.743999 66.7159 0.887999 66.4279 1.176C66.1559 1.464 65.8759 1.848 65.5879 2.328C65.2199 2.936 64.8439 3.64 64.4599 4.44C64.0759 5.224 63.6999 6.056 63.3319 6.936C62.9799 7.816 62.6439 8.68 62.3239 9.528ZM73.1354 18.168C72.6234 18.168 72.2554 17.952 72.0314 17.52C71.8554 17.136 71.7674 16.68 71.7674 16.152C71.7674 15.56 71.8554 14.904 72.0314 14.184C72.2074 13.464 72.4474 12.728 72.7514 11.976C72.8634 11.704 73.0074 11.36 73.1834 10.944C73.3754 10.528 73.5994 10.12 73.8554 9.72C73.6314 9.912 73.3674 10.072 73.0634 10.2C72.7594 10.312 72.4634 10.368 72.1754 10.368C71.9514 10.368 71.7674 10.336 71.6234 10.272C71.4954 10.528 71.2874 10.944 70.9994 11.52C70.7114 12.096 70.3274 12.776 69.8474 13.56C69.7994 13.64 69.7514 13.64 69.7034 13.56C69.6714 13.464 69.6554 13.336 69.6554 13.176C69.6554 13.048 69.6714 12.912 69.7034 12.768C69.7354 12.624 69.7834 12.488 69.8474 12.36C70.0074 12.056 70.1674 11.744 70.3274 11.424C70.4874 11.088 70.6314 10.792 70.7594 10.536C70.8874 10.28 70.9594 10.12 70.9754 10.056C70.6874 9.912 70.4714 9.712 70.3274 9.456C70.1834 9.184 70.1114 8.92 70.1114 8.664C70.1114 8.408 70.1674 8.176 70.2794 7.968C70.4074 7.76 70.5914 7.6 70.8314 7.488C70.9754 7.44 71.1114 7.416 71.2394 7.416C71.5914 7.416 71.8794 7.528 72.1034 7.752C72.0874 7.816 72.0714 7.888 72.0554 7.968C72.0554 8.032 72.0554 8.104 72.0554 8.184C72.0554 8.68 72.2554 9.048 72.6554 9.288C73.0554 9.528 73.4874 9.616 73.9514 9.552C74.1754 9.232 74.4314 8.952 74.7194 8.712C75.0074 8.472 75.3194 8.352 75.6554 8.352C75.8314 8.352 76.0794 8.36 76.3994 8.376C76.7354 8.392 76.9754 8.392 77.1194 8.376C77.0234 8.44 76.9114 8.568 76.7834 8.76C76.6554 8.952 76.5354 9.152 76.4234 9.36C76.3114 9.568 76.2234 9.728 76.1594 9.84C75.7274 10.672 75.3274 11.504 74.9594 12.336C74.5914 13.152 74.3114 13.936 74.1194 14.688C74.0874 14.832 74.0554 14.968 74.0234 15.096C74.0074 15.208 73.9994 15.328 73.9994 15.456C73.9994 15.936 74.1594 16.176 74.4794 16.176C74.7034 16.176 75.0234 16.016 75.4394 15.696C75.8074 15.392 76.1354 15.056 76.4234 14.688C76.7434 14.272 77.0474 13.824 77.3354 13.344C77.6234 12.864 77.8714 12.424 78.0794 12.024C78.1594 11.896 78.2154 11.832 78.2474 11.832C78.3434 11.832 78.3914 11.976 78.3914 12.264C78.3914 12.376 78.3754 12.512 78.3434 12.672C78.3114 12.832 78.2554 12.984 78.1754 13.128C77.9354 13.528 77.6634 13.968 77.3594 14.448C77.0554 14.912 76.7434 15.368 76.4234 15.816C76.2154 16.104 75.9194 16.432 75.5354 16.8C75.1674 17.168 74.7674 17.488 74.3354 17.76C73.9194 18.032 73.5194 18.168 73.1354 18.168ZM79.9504 18.192C79.2144 18.192 78.5744 17.96 78.0304 17.496C77.5024 17.032 77.2384 16.288 77.2384 15.264C77.2384 14.512 77.3744 13.728 77.6464 12.912C77.9184 12.096 78.3024 11.336 78.7984 10.632C79.3104 9.928 79.9264 9.352 80.6464 8.904C81.3664 8.456 82.1744 8.232 83.0704 8.232C83.8064 8.232 84.3744 8.376 84.7744 8.664C85.1904 8.936 85.4864 9.304 85.6624 9.768C85.8384 10.232 85.9264 10.728 85.9264 11.256C85.9264 11.656 85.8784 12.064 85.7824 12.48C85.7024 12.88 85.5824 13.28 85.4224 13.68C85.6944 14 86.0384 14.16 86.4544 14.16C86.9024 14.16 87.3184 13.992 87.7024 13.656C87.9264 13.464 88.1264 13.224 88.3024 12.936C88.4944 12.632 88.6624 12.352 88.8064 12.096C88.8544 12 88.9104 11.952 88.9744 11.952C89.0544 11.952 89.0944 12.064 89.0944 12.288C89.0944 12.432 89.0704 12.6 89.0224 12.792C88.9904 12.984 88.9104 13.176 88.7824 13.368C88.5424 13.784 88.2944 14.104 88.0384 14.328C87.7824 14.536 87.4944 14.704 87.1744 14.832C86.9344 14.928 86.6784 14.976 86.4064 14.976C85.9104 14.976 85.4624 14.824 85.0624 14.52C84.9344 14.792 84.7744 15.072 84.5824 15.36C84.1184 16.144 83.5184 16.816 82.7824 17.376C82.0464 17.92 81.1024 18.192 79.9504 18.192ZM80.8624 17.28C81.2304 17.28 81.5824 17.16 81.9184 16.92C82.2704 16.664 82.5904 16.352 82.8784 15.984C83.1664 15.616 83.4144 15.232 83.6224 14.832C83.8464 14.432 84.0304 14.08 84.1744 13.776C83.6304 13.312 83.3584 12.728 83.3584 12.024C83.3584 11.56 83.4864 11.2 83.7424 10.944C83.9984 10.688 84.3504 10.576 84.7984 10.608C84.7824 10.24 84.6864 9.936 84.5104 9.696C84.3344 9.456 84.0464 9.336 83.6464 9.336C83.2784 9.336 82.9264 9.448 82.5904 9.672C82.2704 9.896 81.9664 10.184 81.6784 10.536C81.4064 10.872 81.1584 11.224 80.9344 11.592C80.7264 11.944 80.5504 12.264 80.4064 12.552C80.1984 12.968 80.0064 13.472 79.8304 14.064C79.6544 14.656 79.5664 15.208 79.5664 15.72C79.5664 16.168 79.6544 16.544 79.8304 16.848C80.0224 17.136 80.3664 17.28 80.8624 17.28ZM99.8757 18.144C99.3317 18.144 98.9557 17.984 98.7477 17.664C98.5557 17.328 98.4597 16.944 98.4597 16.512C98.4597 16.048 98.5317 15.512 98.6757 14.904C98.8357 14.28 99.0277 13.64 99.2517 12.984C99.4917 12.312 99.7317 11.688 99.9717 11.112C100.052 10.92 100.124 10.712 100.188 10.488C100.268 10.264 100.308 10.064 100.308 9.888C100.308 9.568 100.164 9.408 99.8757 9.408C99.7637 9.408 99.6357 9.432 99.4917 9.48C99.3477 9.512 99.1797 9.584 98.9877 9.696C98.6517 9.856 98.3317 10.08 98.0277 10.368C97.7237 10.64 97.5077 10.848 97.3797 10.992C96.7717 11.776 96.3077 12.624 95.9877 13.536C95.6837 14.448 95.3637 15.376 95.0277 16.32C94.9317 16.592 94.8357 16.872 94.7397 17.16C94.6437 17.448 94.5557 17.728 94.4757 18H92.1237C92.3957 17.232 92.6677 16.472 92.9397 15.72C93.2277 14.952 93.5157 14.192 93.8037 13.44C93.9797 13.008 94.1397 12.592 94.2837 12.192C94.4277 11.776 94.5557 11.392 94.6677 11.04C94.7317 10.864 94.7877 10.68 94.8357 10.488C94.8837 10.296 94.9077 10.12 94.9077 9.96C94.9077 9.592 94.7477 9.408 94.4277 9.408C94.3157 9.408 94.1797 9.432 94.0197 9.48C93.8757 9.512 93.6997 9.584 93.4917 9.696C93.1557 9.856 92.8357 10.08 92.5317 10.368C92.2277 10.64 92.0197 10.848 91.9077 10.992C91.6997 11.248 91.4997 11.536 91.3077 11.856C91.1157 12.16 90.9477 12.472 90.8037 12.792C90.4837 13.48 90.2277 14.136 90.0357 14.76C89.8597 15.368 89.6917 15.888 89.5317 16.32C89.4357 16.592 89.3397 16.872 89.2437 17.16C89.1477 17.448 89.0597 17.728 88.9797 18H86.6517C86.6517 18 86.7077 17.8 86.8197 17.4C86.9317 17 87.0677 16.6 87.2277 16.2L88.7877 12.216C88.8357 12.088 88.9077 11.88 89.0037 11.592C89.1157 11.288 89.2277 10.96 89.3397 10.608C89.4517 10.24 89.5477 9.888 89.6277 9.552C89.7077 9.2 89.7477 8.912 89.7477 8.688C89.7477 8.544 89.7317 8.448 89.6997 8.4C89.8437 8.4 90.0037 8.4 90.1797 8.4C90.3717 8.384 90.5477 8.376 90.7077 8.376C90.9317 8.376 91.1397 8.384 91.3317 8.4C91.5397 8.416 91.6757 8.456 91.7397 8.52C91.9157 8.648 92.0037 8.84 92.0037 9.096C92.0037 9.304 91.9637 9.512 91.8837 9.72C91.8037 9.912 91.7477 10.072 91.7157 10.2C91.9397 9.992 92.1877 9.792 92.4597 9.6C92.7317 9.408 93.1237 9.16 93.6357 8.856C93.9557 8.68 94.3317 8.536 94.7637 8.424C95.1957 8.312 95.5877 8.256 95.9397 8.256C96.7877 8.256 97.2117 8.608 97.2117 9.312C97.2117 9.6 97.1237 9.984 96.9477 10.464C97.2837 10.128 97.6277 9.84 97.9797 9.6C98.3477 9.344 98.7317 9.096 99.1317 8.856C99.4517 8.68 99.8277 8.536 100.26 8.424C100.692 8.312 101.084 8.256 101.436 8.256C102.284 8.256 102.708 8.616 102.708 9.336C102.708 9.496 102.676 9.68 102.612 9.888C102.564 10.096 102.492 10.328 102.396 10.584C102.3 10.84 102.164 11.192 101.988 11.64C101.812 12.072 101.628 12.536 101.436 13.032C101.26 13.512 101.108 13.976 100.98 14.424C100.868 14.856 100.812 15.216 100.812 15.504C100.812 15.68 100.836 15.84 100.884 15.984C100.948 16.112 101.06 16.176 101.22 16.176C101.332 16.176 101.492 16.12 101.7 16.008C101.988 15.832 102.276 15.6 102.564 15.312C102.852 15.024 103.044 14.816 103.14 14.688C103.46 14.272 103.764 13.832 104.052 13.368C104.34 12.888 104.588 12.448 104.796 12.048C104.876 11.92 104.932 11.856 104.964 11.856C105.06 11.856 105.108 11.992 105.108 12.264C105.108 12.392 105.084 12.544 105.036 12.72C105.004 12.88 104.948 13.032 104.868 13.176C104.644 13.56 104.38 13.984 104.076 14.448C103.772 14.912 103.46 15.36 103.14 15.792C102.916 16.096 102.62 16.432 102.252 16.8C101.884 17.168 101.492 17.488 101.076 17.76C100.66 18.016 100.26 18.144 99.8757 18.144ZM109.549 17.664C108.813 18.048 108.037 18.24 107.221 18.24C106.533 18.24 105.893 18.072 105.301 17.736C104.709 17.4 104.309 16.864 104.101 16.128C104.005 15.792 103.957 15.44 103.957 15.072C103.957 14.464 104.061 13.84 104.269 13.2C104.493 12.544 104.781 11.944 105.133 11.4C105.677 10.552 106.365 9.848 107.197 9.288C108.029 8.728 108.949 8.448 109.957 8.448C110.709 8.448 111.293 8.64 111.709 9.024C112.125 9.408 112.333 9.856 112.333 10.368C112.333 10.976 112.125 11.512 111.709 11.976C111.309 12.424 110.781 12.768 110.125 13.008C109.805 13.12 109.461 13.208 109.093 13.272C108.741 13.32 108.405 13.344 108.085 13.344C107.429 13.344 106.925 13.256 106.573 13.08C106.269 13.864 106.117 14.584 106.117 15.24C106.117 15.832 106.253 16.32 106.525 16.704C106.797 17.072 107.229 17.256 107.821 17.256C108.317 17.256 108.805 17.12 109.285 16.848C109.781 16.576 110.237 16.24 110.653 15.84C111.085 15.44 111.445 15.056 111.733 14.688C111.957 14.416 112.149 14.16 112.309 13.92C112.469 13.68 112.637 13.408 112.813 13.104C112.989 12.784 113.197 12.392 113.437 11.928C113.501 11.816 113.557 11.76 113.605 11.76C113.701 11.76 113.749 11.888 113.749 12.144C113.749 12.288 113.725 12.448 113.677 12.624C113.645 12.784 113.581 12.952 113.485 13.128C113.261 13.528 112.989 13.968 112.669 14.448C112.365 14.912 112.053 15.36 111.733 15.792C111.445 16.176 111.117 16.528 110.749 16.848C110.381 17.168 109.981 17.44 109.549 17.664ZM107.365 12.552C107.445 12.6 107.533 12.632 107.629 12.648C107.725 12.664 107.821 12.672 107.917 12.672C108.237 12.672 108.557 12.6 108.877 12.456C109.197 12.296 109.469 12.136 109.693 11.976C110.061 11.72 110.373 11.416 110.629 11.064C110.885 10.712 111.029 10.312 111.061 9.864C111.077 9.672 111.029 9.512 110.917 9.384C110.821 9.24 110.645 9.168 110.389 9.168C110.261 9.168 110.101 9.192 109.909 9.24C109.653 9.304 109.397 9.424 109.141 9.6C108.885 9.776 108.637 9.984 108.397 10.224C108.317 10.304 108.173 10.464 107.965 10.704C107.773 10.928 107.589 11.184 107.413 11.472C107.237 11.744 107.149 11.984 107.149 12.192C107.149 12.368 107.221 12.488 107.365 12.552Z" fill="#944424"/>
</svg>
