<svg width="483" height="318" viewBox="0 0 483 318" fill="none" xmlns="http://www.w3.org/2000/svg">
<path d="M30.4365 117.485C29.799 117.541 29.4523 117.25 29.3965 116.612C29.3965 116.612 29.393 116.572 29.3861 116.493C29.3861 116.493 29.4224 116.449 29.4951 116.363C30.0142 114.952 30.334 113.559 30.4545 112.183C30.5681 110.728 30.5915 109.16 30.5248 107.479C30.6214 106.748 30.9522 106.398 31.517 106.429C31.5649 105.14 31.7716 102.913 32.1372 99.7492C32.5029 96.5853 32.9029 92.8964 33.3373 88.6825C33.8444 84.382 34.3375 79.922 34.8168 75.3027C35.3757 70.6764 35.8758 66.2961 36.3172 62.1619C36.7516 57.948 37.0789 54.3458 37.2991 51.3552C37.5192 48.3646 37.5875 46.3912 37.5038 45.4348C37.0844 45.2306 36.0345 45.1619 34.3539 45.2286C32.6733 45.2953 30.7571 45.4228 28.6053 45.6111C26.2145 45.8202 23.7474 46.0762 21.2041 46.379C18.6608 46.6819 16.3566 46.9638 14.2915 47.2247C12.2991 47.399 10.8646 47.5245 9.98795 47.6012C9.35038 47.657 9.00371 47.3661 8.94793 46.7286C8.86426 45.7722 9.44953 45.1187 10.7037 44.7681C11.951 44.3377 12.8501 44.0583 13.4009 43.9298C14.5894 43.7455 16.4588 43.5418 19.009 43.3187C21.5523 43.0159 24.3382 42.732 27.3666 42.4671C30.3881 42.1224 33.2138 41.835 35.8437 41.6049C38.5534 41.3679 40.5856 41.1901 41.9404 41.0716L68.7182 38.7288C69.3557 38.673 69.6954 38.8842 69.7373 39.3624C69.8 40.0797 69.414 40.7157 68.5792 41.2706C67.8171 41.7388 67.1606 42.0372 66.6097 42.1657C66.0588 42.2942 65.2688 42.4436 64.2397 42.6139C63.2903 42.7773 62.2578 42.9078 61.142 43.0054C59.5481 43.1448 57.6718 43.2688 55.5131 43.3774C53.3543 43.486 51.3584 43.6204 49.5254 43.7808C48.1706 43.8993 46.9787 44.0438 45.9496 44.2141C45.0002 44.3775 44.3367 44.5961 43.9592 44.8701C43.5447 47.4761 43.0665 50.7302 42.5246 54.6322C41.9826 58.5343 41.4252 62.7188 40.8523 67.1858C40.2725 71.573 39.729 75.9169 39.2219 80.2175C38.7945 84.511 38.372 88.4027 37.9546 91.8923C37.6168 95.375 37.3324 98.0901 37.1013 100.038C36.8083 103.115 36.6245 106.062 36.5498 108.879C36.5477 111.61 36.5781 113.334 36.6409 114.051C36.6688 114.37 36.2982 114.724 35.5291 115.112C34.76 115.501 33.9476 115.853 33.0919 116.169C32.2362 116.484 31.6524 116.696 31.3406 116.804C31.2161 117.216 30.9147 117.443 30.4365 117.485ZM51.4162 116.734C51.2568 116.748 51.0506 116.685 50.7976 116.547C50.5515 116.488 50.4579 116.336 50.5166 116.09C50.5714 114.88 50.6452 113.428 50.7378 111.734C50.8235 109.959 51.346 108.589 52.3054 107.621C53.6275 97.9494 55.0725 88.3068 56.6407 78.6935C57.2035 75.0305 57.9049 71.1145 58.7448 66.9454C59.6573 62.6897 60.8593 58.5291 62.3506 54.4637C63.835 50.3185 65.7562 46.5768 68.1142 43.2386C70.545 39.8137 73.5201 37.1041 77.0397 35.1098C79.333 33.7849 81.7547 33.0108 84.305 32.7877C85.2613 32.704 86.3148 32.8126 87.4654 33.1135C88.6887 33.3277 89.7701 33.7551 90.7095 34.3956C91.6489 35.0362 92.1674 35.9144 92.265 37.0301C92.2859 37.2692 92.2376 37.6348 92.1201 38.1269C91.8949 38.3072 91.488 38.7042 90.8992 39.3178C90.3105 39.9315 89.7182 40.5053 89.1225 41.0392C88.5995 41.4865 88.2618 41.757 88.1093 41.8506C87.936 41.7052 87.8458 41.5926 87.8389 41.5129C87.818 41.2738 87.8767 41.0278 88.0152 40.7747C88.2334 40.5147 88.3285 40.2253 88.3006 39.9066C88.2309 39.1096 87.7298 38.4307 86.7974 37.8698C85.9377 37.2223 84.9325 36.7481 83.7819 36.4472C82.6244 36.0667 81.6869 35.9078 80.9697 35.9705C78.3397 36.2006 76.0066 37.529 73.9704 39.9557C71.9272 42.3027 70.1424 45.3097 68.6162 48.9767C67.1627 52.557 65.9294 56.359 64.9162 60.3826C63.9031 64.4062 63.0682 68.1733 62.4117 71.6839C61.7482 75.1147 61.2281 77.8906 60.8516 80.0115C59.5734 87.4312 58.4182 94.8802 57.386 102.359C59.8547 98.4486 62.4324 94.4085 65.1191 90.2385C67.7989 85.9888 69.9538 81.7047 71.5836 77.3862C71.4929 76.3501 71.7091 75.6085 72.2321 75.1612C72.8279 74.6272 73.5242 74.3254 74.3212 74.2557C74.7196 74.2208 75.2446 74.2552 75.8961 74.3588C76.0486 74.2651 76.2443 74.2079 76.4834 74.187C77.2804 74.1172 77.8038 74.5934 78.0539 75.6155C78.3766 76.5509 78.5624 77.2976 78.6112 77.8555C78.6879 78.7321 78.6764 79.9779 78.5768 81.5927C78.5499 83.1208 78.0792 84.1658 77.1647 84.7277C77.1686 85.691 77.1726 86.6543 77.1766 87.6176C77.2603 88.574 77.3474 89.5702 77.4381 90.6062C77.5148 91.4829 77.6662 92.7545 77.8923 94.4212C78.1911 96.0011 78.6165 97.6503 79.1684 99.3688C79.7929 101.001 80.556 102.379 81.4576 103.505C82.3521 104.551 83.437 105.018 84.7121 104.907C86.1466 104.781 87.4526 104.105 88.6302 102.877C89.8007 101.57 90.8378 100.115 91.7413 98.5097C92.6449 96.9048 93.4065 95.5132 94.0261 94.3347C94.6388 93.0765 95.0647 92.4369 95.3038 92.416C95.5429 92.3951 95.6833 92.6237 95.7252 93.1019C95.767 93.5801 95.6564 94.1519 95.3934 94.8173C94.7359 96.481 93.8602 98.4046 92.7664 100.588C91.7453 102.685 90.4641 104.564 88.923 106.225C87.3749 107.806 85.5648 108.687 83.4927 108.868C81.4206 109.049 79.6444 108.482 78.1641 107.166C76.7635 105.843 75.6139 104.177 74.7153 102.168C73.8098 100.078 73.1001 97.9322 72.586 95.7286C72.1517 93.518 71.8683 91.6557 71.7359 90.1414C71.6173 88.7866 71.5386 87.4283 71.4998 86.0665C71.461 84.7047 71.4655 83.3793 71.5133 82.0902C69.6235 86.1905 67.4079 90.239 64.8666 94.2357C62.4049 98.2254 59.893 102.099 57.3307 105.857L57.4353 107.052C57.5887 108.805 57.626 110.609 57.5473 112.463C57.0382 113.07 56.1083 113.914 54.7574 114.996C53.4066 116.078 52.2928 116.657 51.4162 116.734ZM118.781 80.9663C118.382 81.0012 118.165 80.8194 118.131 80.4209C118.11 80.1818 118.132 79.9791 118.198 79.8127C118.564 78.4958 118.818 77.2689 118.96 76.1323C119.174 74.909 119.225 73.6597 119.114 72.3846C119.072 71.9064 118.976 71.2724 118.827 70.4824C118.75 69.6057 118.521 68.8227 118.14 68.1333C117.838 67.437 117.328 67.1202 116.611 67.183C116.292 67.2108 116.017 67.2751 115.785 67.3757C115.546 67.3966 115.267 67.421 114.948 67.4489C114.151 67.5186 113.724 67.2347 113.669 66.5972C113.641 66.2784 113.975 65.9681 114.671 65.6662C115.447 65.3574 116.267 65.085 117.13 64.8489C117.992 64.6128 118.583 64.4808 118.902 64.4529C120.894 64.2786 122.196 64.9276 122.806 66.4C123.49 67.7857 123.901 69.2755 124.041 70.8694C124.173 72.3837 124.034 74.002 123.622 75.7244C123.29 77.4398 122.485 78.7952 121.207 79.7903C120.909 80.0573 120.532 80.3313 120.075 80.6122C119.61 80.8134 119.179 80.9315 118.781 80.9663ZM103.353 109.781C101.042 109.983 99.3594 109.568 98.3054 108.536C97.3312 107.497 96.7499 105.901 96.5617 103.75C96.3525 101.359 96.4222 98.9434 96.7709 96.5037C97.1196 94.064 97.5948 91.6936 98.1966 89.3924L97.1521 89.8451C96.7327 89.6409 96.4986 89.2599 96.4498 88.702C96.387 87.9847 96.6465 87.2794 97.2283 86.5861C97.8828 85.8061 98.5652 85.3449 99.2755 85.2024C99.6491 83.9651 100.191 82.3518 100.9 80.3624C101.609 78.373 102.438 76.3732 103.386 74.3629C104.415 72.3456 105.59 70.6366 106.913 69.236C108.236 67.8354 109.734 67.0618 111.408 66.9154C112.125 66.8527 112.512 67.1401 112.567 67.7776C112.588 68.0167 112.457 68.3494 112.173 68.7758C111.882 69.1225 111.664 69.3825 111.518 69.5558C110.566 70.6028 109.688 72.0448 108.885 73.8818C108.075 75.639 107.352 77.469 106.716 79.3718C106.072 81.1948 105.531 82.8081 105.091 84.2118C107.295 83.6977 109.466 83.2669 111.603 82.9193C113.821 82.5647 116.045 82.2897 118.277 82.0945C118.516 82.0736 119.117 82.0611 120.081 82.0572C121.037 81.9735 122.12 81.9591 123.329 82.0139C124.532 81.989 125.542 82.0612 126.36 82.2306C127.257 82.393 127.723 82.6734 127.758 83.0719C127.786 83.3907 127.604 83.6073 127.213 83.7219C126.901 83.8295 126.665 83.8902 126.506 83.9042C125.47 83.9948 124.467 84.0023 123.496 83.9266C122.526 83.8508 121.523 83.8583 120.487 83.9489C117.777 84.186 115.045 84.6258 112.291 85.2683C109.536 85.9108 106.829 86.6295 104.168 87.4245C103.552 89.5663 102.961 91.987 102.394 94.6867C101.907 97.3794 101.764 99.8814 101.967 102.193C102.078 103.468 102.425 104.682 103.008 105.836C103.584 106.91 104.629 107.38 106.143 107.248C108.295 107.059 110.254 106.045 112.02 104.204C113.859 102.276 115.521 100.163 117.007 97.8652C118.485 95.4873 119.719 93.5323 120.71 92.0002L120.829 91.9897C121.148 91.9618 121.321 92.1073 121.349 92.4261C121.457 92.7379 121.517 92.9735 121.531 93.1329C121.65 94.4877 121.443 95.7907 120.91 97.0419C120.37 98.2134 119.663 99.3192 118.791 100.359C116.813 102.54 114.503 104.589 111.86 106.507C109.297 108.417 106.461 109.509 103.353 109.781ZM173.442 104.853C170.971 105.069 168.684 104.627 166.58 103.526C166.528 103.852 166.473 104.138 166.414 104.384C166.356 104.63 166.127 104.77 165.728 104.805C164.772 104.889 163.817 104.531 162.864 103.731C161.983 102.844 161.505 101.963 161.428 101.086C161.379 100.528 161.386 99.6843 161.447 98.5546C161.589 97.4179 161.774 96.3176 162.002 95.2537C162.31 94.1828 162.645 93.4307 163.009 92.9973C163.544 89.0156 164.082 85.0736 164.624 81.1715C165.239 77.1828 165.854 73.194 166.469 69.2053C167.104 65.4556 167.842 61.4962 168.682 57.3272C169.594 53.0715 170.756 48.9144 172.168 44.8559C173.652 40.7107 175.574 36.969 177.932 33.6308C180.362 30.2059 183.377 27.4928 186.977 25.4915C189.35 24.1596 191.811 23.3821 194.361 23.159C195.238 23.0823 196.292 23.1909 197.522 23.4848C198.745 23.699 199.827 24.1264 200.766 24.767C201.705 25.4075 202.224 26.2857 202.321 27.4014C202.363 27.8796 202.275 28.2487 202.057 28.5087C201.912 28.682 201.544 29.0755 200.956 29.6892C200.36 30.2231 199.764 30.7571 199.168 31.291C198.652 31.818 198.315 32.0885 198.155 32.1024C197.996 32.1163 197.902 31.9639 197.874 31.6451C197.854 31.4061 197.916 31.1998 198.061 31.0265C198.207 30.8532 198.265 30.6071 198.238 30.2883C198.168 29.4914 197.667 28.8125 196.734 28.2516C195.875 27.6041 194.869 27.1299 193.719 26.829C192.561 26.4484 191.624 26.2895 190.907 26.3523C188.356 26.5754 186.06 27.8605 184.016 30.2075C182.046 32.4678 180.298 35.4315 178.771 39.0984C177.245 42.7654 175.91 46.7771 174.765 51.1334C173.693 55.4031 172.744 59.7022 171.918 64.0306C171.085 68.2794 170.384 72.1954 169.814 75.7787C169.324 79.355 168.851 82.2071 168.394 84.335C168.862 83.2501 169.57 81.7026 170.518 79.6923C171.466 77.6819 172.56 75.4983 173.799 73.1413C175.118 70.7774 176.488 68.5295 177.907 66.3976C179.407 64.2588 180.858 62.4856 182.26 61.078C183.663 59.6704 184.962 58.9143 186.157 58.8097C187.353 58.7051 188.242 59.2296 188.825 60.3832C189.4 61.4571 189.791 62.7079 189.996 64.1354C190.194 65.4833 190.328 66.5557 190.398 67.3526C190.579 69.4247 190.645 71.5471 190.594 73.7198C190.899 73.5325 191.432 73.2048 192.194 72.7366C192.956 72.2684 193.497 72.0203 193.815 71.9924C194.294 71.9506 194.554 72.1688 194.596 72.6469C194.665 73.4439 194.116 74.0541 192.949 74.4774C191.854 74.8141 191.002 75.1698 190.392 75.5443C190.127 78.9403 189.597 82.5202 188.802 86.2838C188.007 90.0474 186.652 93.3781 184.737 96.2761C183.958 97.4685 182.923 98.4826 181.631 99.3184C180.339 100.154 179.133 101.063 178.015 102.044C177.419 102.578 176.816 103.032 176.206 103.407C175.683 103.854 175.041 104.312 174.279 104.78L173.442 104.853ZM169.769 89.0331C172.117 86.4988 174.649 84.2295 177.365 82.2252C180.153 80.1342 182.948 78.1229 185.751 76.1913C186.151 73.4259 186.229 70.6485 185.985 67.8591C185.944 67.381 185.805 66.7105 185.569 65.8478C185.405 64.8984 184.925 64.4586 184.128 64.5283C183.012 64.626 181.873 65.3681 180.709 66.7548C179.546 68.1415 178.512 69.6373 177.608 71.2421C176.785 72.84 176.172 74.0982 175.77 75.0167C174.684 77.28 173.56 79.5867 172.401 81.9367C171.314 84.2 170.437 86.5655 169.769 89.0331ZM173.638 101.584C175.79 101.395 177.593 100.435 179.047 98.7012C180.495 96.8882 181.672 94.7374 182.578 92.2489C183.478 89.6807 184.182 87.1698 184.69 84.7162C185.191 82.1829 185.535 80.1452 185.721 78.6031C184.429 79.4389 182.882 80.578 181.081 82.0205C179.273 83.3833 177.439 84.9089 175.579 86.5974C173.792 88.1993 172.168 89.8271 170.706 91.4807C169.324 93.1274 168.414 94.6526 167.974 96.0562L167.41 99.2375C168.276 99.9648 169.252 100.562 170.337 101.029C171.422 101.496 172.522 101.681 173.638 101.584ZM221.98 71.9375C221.582 71.9724 221.365 71.7906 221.33 71.3921C221.309 71.153 221.332 70.9503 221.397 70.7839C221.764 69.467 222.018 68.2402 222.159 67.1035C222.374 65.8802 222.425 64.6309 222.313 63.3558C222.272 62.8776 222.176 62.2436 222.027 61.4536C221.95 60.5769 221.721 59.7939 221.339 59.1045C221.037 58.4082 220.528 58.0914 219.811 58.1542C219.492 58.1821 219.216 58.2463 218.984 58.3469C218.745 58.3678 218.466 58.3922 218.147 58.4201C217.35 58.4899 216.924 58.2059 216.868 57.5684C216.84 57.2496 217.175 56.9393 217.871 56.6374C218.647 56.3286 219.466 56.0562 220.329 55.8201C221.192 55.584 221.783 55.452 222.101 55.4241C224.094 55.2498 225.395 55.8988 226.006 57.3712C226.689 58.7569 227.101 60.2467 227.24 61.8407C227.373 63.3549 227.233 64.9732 226.822 66.6956C226.49 68.411 225.685 69.7664 224.407 70.7615C224.109 71.0285 223.731 71.3025 223.274 71.5834C222.81 71.7846 222.379 71.9027 221.98 71.9375ZM206.553 100.752C204.242 100.954 202.559 100.539 201.505 99.507C200.531 98.4679 199.949 96.8725 199.761 94.7207C199.552 92.3299 199.622 89.9146 199.97 87.4749C200.319 85.0352 200.794 82.6648 201.396 80.3636L200.352 80.8164C199.932 80.6121 199.698 80.2311 199.649 79.6732C199.587 78.956 199.846 78.2507 200.428 77.5573C201.082 76.7773 201.765 76.3161 202.475 76.1736C202.849 74.9364 203.39 73.323 204.099 71.3336C204.809 69.3442 205.638 67.3444 206.586 65.3341C207.614 63.3168 208.79 61.6078 210.113 60.2072C211.436 58.8066 212.934 58.033 214.607 57.8866C215.325 57.8239 215.711 58.1113 215.767 58.7488C215.788 58.9879 215.656 59.3207 215.372 59.747C215.082 60.0937 214.863 60.3537 214.718 60.527C213.766 61.574 212.888 63.016 212.085 64.853C211.275 66.6103 210.552 68.4403 209.915 70.343C209.272 72.166 208.73 73.7793 208.291 75.183C210.494 74.669 212.665 74.2381 214.803 73.8905C217.02 73.5359 219.245 73.2609 221.476 73.0657C221.716 73.0448 222.317 73.0323 223.28 73.0284C224.236 72.9447 225.319 72.9303 226.529 72.9851C227.731 72.9602 228.741 73.0324 229.559 73.2018C230.457 73.3642 230.923 73.6446 230.958 74.0431C230.986 74.3619 230.804 74.5785 230.412 74.6931C230.101 74.8007 229.865 74.8614 229.706 74.8754C228.669 74.966 227.666 74.9735 226.696 74.8978C225.726 74.822 224.723 74.8295 223.687 74.9201C220.977 75.1572 218.245 75.597 215.49 76.2395C212.736 76.882 210.028 77.6008 207.367 78.3957C206.752 80.5375 206.16 82.9582 205.594 85.6579C205.106 88.3506 204.964 90.8526 205.166 93.1637C205.278 94.4389 205.625 95.6532 206.208 96.8068C206.783 97.8807 207.828 98.3514 209.343 98.219C211.494 98.0307 213.453 97.0161 215.22 95.1752C217.059 93.2475 218.721 91.1346 220.206 88.8364C221.685 86.4585 222.919 84.5035 223.909 82.9714L224.029 82.9609C224.347 82.933 224.521 83.0785 224.549 83.3973C224.656 83.7091 224.717 83.9447 224.731 84.1041C224.849 85.4589 224.642 86.7619 224.109 88.0131C223.569 89.1846 222.863 90.2904 221.99 91.3304C220.013 93.5111 217.703 95.5602 215.06 97.4779C212.496 99.3885 209.661 100.48 206.553 100.752ZM238.392 97.8457C236.958 97.9712 236.188 97.4362 236.083 96.2408C236 95.2845 236.568 94.4317 237.787 93.6826C239.079 92.8468 240.621 92.1096 242.412 91.4711C244.283 90.8256 246.044 90.3101 247.697 89.9246C249.35 89.5391 250.531 89.2751 251.242 89.1326C251.605 88.6993 251.886 88.2331 252.083 87.734C252.273 87.1552 252.344 86.5869 252.295 86.029C252.239 85.3914 251.995 84.8909 251.561 84.5272C251.201 84.077 250.728 83.7168 250.142 83.4469C248.631 82.6957 246.736 81.697 244.459 80.4507C242.182 79.2045 240.13 77.7779 238.303 76.171C236.548 74.4775 235.588 72.6744 235.42 70.7617C235.323 69.6459 235.525 68.7449 236.027 68.0585C237.301 66.1 238.956 63.9074 240.993 61.4807C243.102 58.9673 245.401 56.7986 247.892 54.9746C250.455 53.0639 252.972 52.0005 255.443 51.7844C257.674 51.5892 259.06 51.8293 259.601 52.5047C260.142 53.1801 260.5 54.514 260.674 56.5064C260.792 57.8612 260.686 59.3964 260.354 61.1118C260.015 62.7476 259.117 63.9504 257.658 64.7205L257.419 64.7414C257.18 64.7623 256.989 64.4176 256.847 63.7074C256.777 62.9104 256.715 62.1931 256.659 61.5556C256.617 61.0774 256.554 60.3601 256.47 59.4038C256.387 58.4474 256.111 57.5882 255.643 56.8261C255.168 55.9843 254.372 55.6123 253.256 55.7099C252.141 55.8075 250.857 56.2812 249.406 57.1309C247.947 57.9009 246.513 58.9499 245.103 60.2778C243.767 61.5191 242.676 62.8191 241.831 64.1779C240.986 65.5367 240.616 66.8138 240.721 68.0092C240.895 70.0016 241.759 71.6125 243.312 72.8418C244.944 74.0641 246.802 75.1062 248.885 75.9679C250.968 76.8296 252.776 77.7556 254.308 78.7459C255.92 79.7291 256.792 80.9779 256.924 82.4921C257.022 83.6078 256.837 84.7081 256.37 85.793C255.896 86.7981 255.335 87.7305 254.687 88.5903C255.477 88.4408 256.271 88.3313 257.068 88.2615C257.938 88.1051 258.771 87.9921 259.568 87.9224C260.285 87.8596 260.661 88.0275 260.696 88.426C260.731 88.8244 260.636 89.1138 260.411 89.2941C260.178 89.3947 259.867 89.5023 259.475 89.6169C258.294 89.8809 257.072 90.1483 255.811 90.4193C254.63 90.6833 253.452 90.9871 252.277 91.3308C250.22 93.5184 248.15 95.1048 246.068 96.09C243.979 96.9955 241.421 97.5808 238.392 97.8457ZM272.458 94.0221C271.82 94.0779 271.165 93.9345 270.493 93.5918C269.9 93.2421 269.569 92.6688 269.499 91.8718C269.443 91.2342 269.504 90.5464 269.68 89.8082C269.849 88.9903 269.95 88.299 269.98 87.7341C270.875 82.3557 271.853 77.0101 272.914 71.6974C274.048 66.2981 275.145 60.9421 276.206 55.6294L272.859 55.9222C272.62 55.9431 272.384 56.0039 272.152 56.1045C271.913 56.1254 271.674 56.1463 271.435 56.1673L270.957 56.2091C270.877 56.2161 270.84 56.2594 270.847 56.3391C270.348 56.1418 270.078 55.8041 270.036 55.326C270.001 54.9275 270.053 54.6017 270.191 54.3487C270.41 54.0887 270.631 53.8685 270.856 53.6882C271.22 53.2549 271.677 52.974 272.228 52.8455C272.859 52.71 273.453 52.6178 274.011 52.569C274.489 52.5272 274.971 52.5252 275.456 52.5631C276.014 52.5143 276.532 52.4689 277.01 52.4271C277.186 51.6889 277.418 50.6648 277.705 49.3549C277.985 47.9652 278.225 46.579 278.425 45.1963C278.625 43.8135 278.698 42.8034 278.642 42.1658C278.607 41.7674 278.314 41.6324 277.763 41.7609C277.292 41.8824 277.006 41.8271 276.905 41.595C277.338 40.1117 277.691 38.6353 277.963 37.1659C278.309 35.6099 278.615 34.0573 278.881 32.5082C278.978 31.777 279.523 31.127 280.517 30.5582C281.505 29.9097 282.357 29.5541 283.074 29.4913C283.791 29.4286 284.29 29.6258 284.571 30.0831C284.845 30.4606 285.01 30.9682 285.066 31.6057C285.143 32.4824 285.022 33.8581 284.704 35.733C284.386 37.6078 284.003 39.649 283.554 41.8566C283.097 43.9844 282.631 45.9928 282.153 47.8815C281.756 49.7633 281.436 51.1565 281.194 52.0611L294.583 50.8897C294.663 50.8827 294.832 50.9883 295.092 51.2065C295.12 51.5253 294.587 51.853 293.492 52.1897C292.47 52.4397 291.879 52.5717 291.72 52.5857C289.915 53.0648 288.066 53.5076 286.174 53.914C284.276 54.2408 282.377 54.5675 280.478 54.8942C280.132 56.4503 279.603 58.6648 278.891 61.5378C278.259 64.4039 277.564 67.4761 276.807 70.7546C276.129 74.0261 275.554 77.0879 275.081 79.94C274.6 82.7124 274.419 84.776 274.538 86.1308C274.601 86.8481 274.787 87.5947 275.095 88.3708C275.477 89.0601 276.106 89.3665 276.983 89.2898C278.178 89.1852 279.375 88.6388 280.573 87.6506C281.852 86.6554 283.04 85.5476 284.137 84.3273C285.315 83.1 286.304 82.0097 287.104 81.0563C287.904 80.103 288.463 79.6124 288.782 79.5845C289.18 79.5496 289.404 79.8111 289.453 80.369C289.467 80.5284 289.458 80.8905 289.427 81.4553C289.476 82.0132 289.301 82.3096 288.903 82.3444C288.175 83.2111 287.107 84.3084 285.697 85.6363C284.36 86.8776 282.864 88.1328 281.209 89.4019C279.626 90.5843 278.032 91.6473 276.428 92.5906C274.897 93.4474 273.574 93.9245 272.458 94.0221ZM328.027 89.1605C327.389 89.2163 326.734 89.0728 326.062 88.7301C325.469 88.3804 325.138 87.8071 325.068 87.0102C325.012 86.3726 325.073 85.6847 325.249 84.9465C325.418 84.1287 325.519 83.4373 325.549 82.8725C326.444 77.494 327.422 72.1485 328.483 66.8358C329.617 61.4364 330.714 56.0804 331.775 50.7677L328.428 51.0606C328.189 51.0815 327.953 51.1422 327.721 51.2428C327.482 51.2638 327.243 51.2847 327.004 51.3056L326.526 51.3474C326.446 51.3544 326.409 51.3977 326.416 51.4774C325.917 51.2802 325.647 50.9425 325.605 50.4643C325.57 50.0658 325.622 49.7401 325.76 49.487C325.979 49.227 326.2 49.0069 326.425 48.8266C326.789 48.3932 327.246 48.1123 327.797 47.9838C328.428 47.8483 329.022 47.7562 329.58 47.7074C330.058 47.6655 330.54 47.6636 331.025 47.7014C331.583 47.6526 332.101 47.6073 332.579 47.5655C332.755 46.8273 332.987 45.8032 333.274 44.4932C333.554 43.1035 333.794 41.7173 333.994 40.3346C334.194 38.9519 334.267 37.9417 334.211 37.3042C334.176 36.9057 333.883 36.7707 333.332 36.8992C332.861 37.0207 332.575 36.9655 332.474 36.7333C332.907 35.25 333.26 33.7737 333.532 32.3043C333.878 30.7482 334.184 29.1957 334.45 27.6466C334.547 26.9154 335.092 26.2654 336.086 25.6965C337.074 25.048 337.926 24.6924 338.643 24.6296C339.36 24.5669 339.859 24.7642 340.14 25.2214C340.414 25.599 340.579 26.1065 340.635 26.7441C340.712 27.6207 340.591 28.9965 340.273 30.8713C339.955 32.7462 339.572 34.7874 339.123 36.9949C338.666 39.1228 338.2 41.1311 337.722 43.0199C337.325 44.9017 337.005 46.2949 336.763 47.1994L350.152 46.028C350.232 46.0211 350.401 46.1267 350.661 46.3448C350.689 46.6636 350.156 46.9913 349.061 47.328C348.039 47.5781 347.448 47.7101 347.289 47.724C345.484 48.2032 343.635 48.6459 341.743 49.0524C339.845 49.3791 337.946 49.7058 336.047 50.0326C335.701 51.5886 335.172 53.8031 334.46 56.6762C333.828 59.5422 333.133 62.6145 332.376 65.8929C331.698 69.1644 331.123 72.2262 330.65 75.0783C330.169 77.8507 329.988 79.9143 330.107 81.2691C330.17 81.9864 330.356 82.7331 330.664 83.5091C331.046 84.1985 331.675 84.5048 332.552 84.4281C333.747 84.3235 334.944 83.7771 336.142 82.7889C337.421 81.7937 338.609 80.686 339.706 79.4656C340.884 78.2384 341.873 77.148 342.673 76.1947C343.473 75.2413 344.032 74.7507 344.351 74.7228C344.749 74.688 344.973 74.9495 345.022 75.5073C345.036 75.6667 345.027 76.0288 344.996 76.5937C345.045 77.1516 344.87 77.4479 344.472 77.4828C343.744 78.3495 342.676 79.4468 341.266 80.7747C339.929 82.0159 338.433 83.2711 336.777 84.5402C335.195 85.7227 333.601 86.7856 331.997 87.729C330.466 88.5857 329.143 89.0629 328.027 89.1605ZM358.425 38.9199C358.106 38.9478 357.76 38.6569 357.385 38.0472C357.09 37.4306 356.832 36.7706 356.61 36.0673C356.46 35.2773 356.371 34.7229 356.344 34.4041C356.33 34.2448 356.312 34.0455 356.291 33.8064C356.343 33.4807 356.485 33.2675 356.717 33.1669C358.058 32.889 359.312 32.5383 360.48 32.1149C361.727 31.6846 362.971 31.2144 364.211 30.7044C364.363 30.6107 364.639 30.5465 365.037 30.5116C365.675 30.4558 366.025 30.7866 366.088 31.5038C366.227 33.0978 365.585 34.479 364.162 35.6475C363.334 36.282 362.43 36.9634 361.45 37.6916C360.549 38.4129 359.541 38.8223 358.425 38.9199ZM350.925 88.1208C349.729 88.2254 349.076 87.6402 348.964 86.365C348.846 85.0102 348.931 83.236 349.221 81.0424C349.504 78.7691 349.867 76.4888 350.309 74.2015C350.751 71.9143 351.076 70.1191 351.283 68.8161C351.335 68.4904 351.501 67.6326 351.781 66.2429C352.054 64.7736 352.356 63.1812 352.688 61.4657C353.02 59.7503 353.289 58.241 353.497 56.938C353.777 55.5483 353.906 54.7339 353.885 54.4949C353.85 54.0964 353.58 53.7587 353.074 53.4817C352.647 53.1978 352.417 52.8566 352.382 52.4581C352.361 52.219 352.38 51.9765 352.439 51.7304C352.498 51.4843 352.56 51.2781 352.626 51.1118C352.83 50.6924 353.382 50.1221 354.283 49.4008C355.183 48.6796 356.131 48.0346 357.125 47.4658C358.192 46.8103 358.925 46.4651 359.323 46.4302C359.562 46.4093 359.725 46.4352 359.812 46.5079C359.905 46.6604 359.97 46.9358 360.004 47.3343C360.067 48.0515 359.962 49.1449 359.689 50.6143C359.496 52.0767 359.197 53.7089 358.792 55.511C358.461 57.2265 358.118 58.8224 357.766 60.2987C357.413 61.7751 357.149 62.8823 356.972 63.6205C356.678 64.8508 356.27 66.6131 355.748 68.9073C355.226 71.2015 354.784 73.4888 354.421 75.7691C354.059 78.0494 353.933 79.8271 354.045 81.1022C354.059 81.2616 354.13 81.6167 354.258 82.1676C354.38 82.6388 354.6 82.8605 354.919 82.8326C355.317 82.7977 356.007 82.4162 356.987 81.688C358.04 80.8731 359.136 80.0946 360.276 79.3525C361.416 78.6103 362.304 78.2113 362.942 78.1556C363.261 78.1277 363.467 78.1899 363.56 78.3424C363.588 78.6611 363.119 79.2643 362.153 80.1519C361.18 80.9598 360.13 81.8145 359.004 82.7161C357.951 83.531 357.243 84.1551 356.879 84.5884C356.145 85.3754 355.248 86.1365 354.188 86.8717C353.128 87.6068 352.04 88.0232 350.925 88.1208ZM370.357 87.7458C369.72 87.8015 369.38 87.5903 369.338 87.1122L370.495 82.4336C370.73 81.4493 370.885 80.4721 370.961 79.5018C371.03 78.4518 371.138 77.3983 371.287 76.3413C371.591 74.3071 371.898 72.3127 372.209 70.3582C372.599 68.3967 372.986 66.3954 373.37 64.3542C373.709 62.7184 374.008 61.0862 374.267 59.4574C374.598 57.742 374.771 56.0405 374.784 54.3529C374.922 54.0999 374.676 54.0411 374.045 54.1766C373.408 54.2323 373.075 54.1008 373.047 53.7821C373.559 52.2918 373.909 50.7756 374.095 49.2335C374.361 47.6844 374.71 46.1682 375.142 44.6848C375.326 44.0264 375.911 43.3729 376.898 42.7244C377.885 42.0758 378.698 41.7237 379.335 41.6679C380.451 41.5703 381.072 42.2388 381.197 43.6733C381.288 44.7093 381.159 46.4472 380.81 48.8869C380.461 51.3265 380.014 54.0157 379.468 56.9545C378.915 59.8136 378.345 62.4734 377.757 64.934C377.249 67.3876 376.884 69.1863 376.663 70.3299C378.816 65.5641 381.269 61.013 384.021 56.6766C386.847 52.2536 390.105 48.1941 393.797 44.4983C394.459 43.798 395.307 43.4025 396.343 43.3118C398.495 43.1236 399.651 43.9459 399.812 45.7789C399.902 46.815 399.839 48.3865 399.622 50.4934C399.405 52.6004 399.085 54.917 398.664 57.4434C398.235 59.89 397.836 62.2136 397.467 64.4142C397.09 66.5351 396.752 68.1709 396.451 69.3215C398.123 67.3281 399.902 65.1649 401.785 62.8318C403.662 60.4191 405.413 57.9371 407.036 55.3858C408.653 52.7549 409.922 50.2749 410.842 47.9458C410.78 47.2285 411.129 46.6358 411.891 46.1676C412.733 45.6924 413.433 45.4304 413.991 45.3816C414.23 45.3607 414.596 45.409 415.088 45.5266C415.393 45.3393 415.625 45.2387 415.784 45.2247C416.501 45.162 416.988 45.6815 417.245 46.7833C417.575 47.7984 417.761 48.5451 417.803 49.0232C417.88 49.8999 417.868 51.1456 417.768 52.7605C417.741 54.2886 417.271 55.3336 416.356 55.8955C416.36 56.8588 416.368 57.862 416.379 58.905C416.462 59.8613 416.546 60.8177 416.63 61.774C416.706 62.6507 416.858 63.9223 417.084 65.5889C417.39 67.2486 417.819 68.9377 418.37 70.6561C418.915 72.2948 419.639 73.6771 420.54 74.8028C421.442 75.9285 422.53 76.4356 423.805 76.324C425.24 76.1985 426.44 75.692 427.406 74.8044C428.452 73.9098 429.289 72.9131 429.915 71.8143C430.622 70.7085 431.179 69.7363 431.587 68.8975C431.996 68.0587 432.32 67.6288 432.559 67.6079C432.957 67.573 433.174 67.7549 433.209 68.1533C433.23 68.3924 433.181 68.758 433.064 69.2501C432.711 70.7265 432.007 72.3139 430.951 74.0124C429.888 75.6312 428.648 77.0647 427.231 78.3129C425.815 79.5612 424.27 80.2585 422.596 80.4049C420.604 80.5792 418.871 80.0482 417.398 78.8119C415.997 77.489 414.807 75.8263 413.829 73.8239C412.924 71.7349 412.217 69.6285 411.71 67.5046C411.283 65.3737 411.003 63.5512 410.871 62.037C410.738 60.5227 410.649 59.0449 410.603 57.6034C410.63 56.0752 410.657 54.5471 410.684 53.0189C410.057 54.1177 409.387 55.1801 408.674 56.2062C407.961 57.2323 407.287 58.2549 406.654 59.274L398.136 72.065C398.241 73.2604 398.084 74.6795 397.665 76.3222C397.32 77.8783 396.678 79.2595 395.739 80.4659C394.881 81.6653 393.694 82.3312 392.18 82.4637C391.622 82.5125 391.286 82.3412 391.171 81.9496C391.129 81.4715 391.134 81.0695 391.186 80.7438C391.013 80.5983 390.876 80.4095 390.775 80.1774C390.747 79.8586 390.723 79.5797 390.702 79.3406C390.646 78.703 390.708 77.5734 390.887 75.9516C391.146 74.3228 391.435 72.571 391.753 70.6961C392.143 68.7346 392.508 66.936 392.846 65.3003C393.185 63.6645 393.443 62.4776 393.619 61.7394C393.944 59.9443 394.225 58.1128 394.463 56.2449C394.781 54.3701 394.863 52.556 394.71 50.8027C394.682 50.4839 394.607 50.0889 394.486 49.6177C394.364 49.1465 394.065 48.9318 393.586 48.9737C392.71 49.0504 391.686 49.7422 390.516 51.0492C389.425 52.3492 388.275 53.8953 387.067 55.6874C385.938 57.4726 384.922 59.1676 384.018 60.7725C383.115 62.3773 382.492 63.516 382.149 64.1884C381.384 65.5402 380.385 67.4345 379.153 69.8712C377.913 72.2281 376.841 74.6509 375.934 77.1394C375.027 79.6278 374.644 81.669 374.783 83.2629L374.825 83.7411C374.888 84.4584 374.317 85.2713 373.111 86.1798C371.992 87.161 371.074 87.683 370.357 87.7458ZM454.413 51.6023C454.014 51.6372 453.797 51.4554 453.763 51.0569C453.742 50.8178 453.764 50.6151 453.83 50.4487C454.196 49.1318 454.45 47.9049 454.592 46.7683C454.806 45.545 454.857 44.2957 454.746 43.0206C454.704 42.5424 454.608 41.9084 454.459 41.1184C454.382 40.2417 454.153 39.4587 453.772 38.7693C453.47 38.073 452.96 37.7562 452.243 37.819C451.924 37.8468 451.649 37.9111 451.417 38.0117C451.178 38.0326 450.899 38.057 450.58 38.0849C449.783 38.1546 449.357 37.8707 449.301 37.2332C449.273 36.9144 449.607 36.6041 450.303 36.3022C451.079 35.9934 451.899 35.721 452.762 35.4849C453.624 35.2488 454.215 35.1168 454.534 35.0889C456.526 34.9146 457.828 35.5636 458.438 37.036C459.122 38.4217 459.533 39.9115 459.673 41.5055C459.805 43.0197 459.666 44.638 459.254 46.3604C458.922 48.0758 458.117 49.4312 456.839 50.4263C456.541 50.6933 456.164 50.9673 455.707 51.2482C455.242 51.4494 454.811 51.5675 454.413 51.6023ZM438.985 80.4166C436.674 80.6188 434.991 80.2038 433.937 79.1718C432.963 78.1327 432.382 76.5373 432.194 74.3855C431.984 71.9947 432.054 69.5794 432.403 67.1397C432.752 64.7 433.227 62.3296 433.829 60.0284L432.784 60.4812C432.365 60.2769 432.131 59.8959 432.082 59.338C432.019 58.6207 432.279 57.9154 432.86 57.2221C433.515 56.4421 434.197 55.9809 434.908 55.8384C435.281 54.6011 435.823 52.9878 436.532 50.9984C437.241 49.009 438.07 47.0092 439.018 44.9989C440.047 42.9816 441.222 41.2726 442.545 39.872C443.868 38.4714 445.366 37.6978 447.04 37.5514C447.757 37.4887 448.144 37.7761 448.199 38.4136C448.22 38.6527 448.089 38.9855 447.805 39.4118C447.514 39.7585 447.296 40.0185 447.15 40.1918C446.198 41.2388 445.32 42.6808 444.517 44.5178C443.707 46.2751 442.984 48.1051 442.348 50.0078C441.704 51.8308 441.163 53.4441 440.723 54.8478C442.927 54.3338 445.098 53.9029 447.235 53.5553C449.453 53.2007 451.677 52.9257 453.909 52.7305C454.148 52.7096 454.749 52.6971 455.713 52.6932C456.669 52.6095 457.752 52.5951 458.961 52.6499C460.164 52.625 461.174 52.6972 461.992 52.8666C462.889 53.029 463.355 53.3094 463.39 53.7079C463.418 54.0267 463.236 54.2433 462.845 54.3579C462.533 54.4655 462.297 54.5262 462.138 54.5402C461.102 54.6308 460.099 54.6383 459.128 54.5626C458.158 54.4868 457.155 54.4943 456.119 54.5849C453.409 54.822 450.677 55.2618 447.923 55.9043C445.168 56.5468 442.461 57.2655 439.8 58.0605C439.184 60.2023 438.593 62.623 438.026 65.3227C437.539 68.0154 437.396 70.5174 437.599 72.8285C437.71 74.1037 438.057 75.318 438.64 76.4716C439.216 77.5455 440.261 78.0162 441.775 77.8838C443.927 77.6955 445.886 76.6809 447.652 74.84C449.491 72.9123 451.153 70.7994 452.639 68.5012C454.117 66.1233 455.351 64.1683 456.342 62.6362L456.461 62.6257C456.78 62.5978 456.953 62.7433 456.981 63.0621C457.089 63.3739 457.149 63.6095 457.163 63.7689C457.282 65.1237 457.075 66.4267 456.542 67.6779C456.002 68.8494 455.295 69.9552 454.423 70.9952C452.445 73.1759 450.135 75.225 447.492 77.1427C444.929 79.0533 442.093 80.1446 438.985 80.4166ZM24.0459 296.403C23.4084 296.459 23.0582 296.128 22.9954 295.411C22.9327 294.693 23.2908 293.738 24.0699 292.546C24.8489 291.354 25.7076 290.154 26.6461 288.948C27.5915 287.821 28.2823 286.998 28.7187 286.478C28.7426 285.833 28.7351 284.83 28.6963 283.468C28.6644 282.186 28.7158 280.937 28.8503 279.721C29.0714 278.577 29.454 277.901 29.9979 277.693C30.7879 271.119 31.6577 264.538 32.6071 257.95C33.6293 251.276 34.9842 244.733 36.6718 238.321C36.114 238.37 35.5197 238.462 34.8891 238.598C34.2586 238.733 33.6245 238.829 32.9869 238.885C32.7478 238.906 32.4654 238.89 32.1396 238.838C31.8069 238.707 31.6266 238.482 31.5987 238.163C31.5639 237.764 31.6919 237.392 31.9828 237.045C32.3534 236.692 32.6547 236.464 32.8868 236.364C33.7077 235.65 34.3971 235.268 34.9549 235.219C35.5855 235.084 36.4188 234.971 37.4549 234.88C38.0666 231.775 38.8636 228.493 39.8459 225.034C40.9009 221.489 42.1621 218.006 43.6295 214.585C45.1767 211.157 46.9942 208.067 49.0823 205.314C51.2431 202.475 53.8148 200.202 56.7974 198.496C58.7131 197.445 60.6671 196.832 62.6595 196.658C64.9707 196.456 67.0189 196.919 68.804 198.048C70.6619 199.09 72.0835 200.652 73.0687 202.734C73.256 203.039 73.3601 203.311 73.381 203.55C73.4019 203.789 73.4263 204.068 73.4542 204.386C73.6564 206.698 72.9436 208.647 71.3158 210.235C71.1634 210.329 70.9746 210.466 70.7494 210.646C70.604 210.819 70.4117 210.916 70.1726 210.937L69.9231 210.839C69.8295 210.686 69.7722 210.491 69.7513 210.251C69.7094 209.773 69.7473 209.288 69.8649 208.796C69.9824 208.304 70.0203 207.819 69.9784 207.341C69.7832 205.109 68.7322 203.193 66.8255 201.594C64.9119 199.914 62.8393 199.172 60.6078 199.367C58.2967 199.569 56.2216 200.634 54.3826 202.562C52.5366 204.41 50.8988 206.801 49.4693 209.737C48.1124 212.586 46.8891 215.584 45.7992 218.731C44.789 221.871 43.9243 224.838 43.205 227.631C42.5654 230.418 42.0399 232.672 41.6284 234.394C43.2293 234.335 44.7869 234.239 46.3011 234.106C47.895 233.967 49.4889 233.827 51.0828 233.688C51.9595 233.611 52.9592 233.564 54.0819 233.546C55.2773 233.441 55.889 233.548 55.9169 233.867C55.9657 234.425 55.6419 234.855 54.9456 235.157C54.3219 235.372 53.8144 235.537 53.4229 235.651C51.3717 236.072 49.2772 236.456 47.1394 236.803C45.0742 237.064 43.0126 237.365 40.9545 237.706C40.1764 240.745 39.4885 243.897 38.8908 247.162C38.3657 250.339 37.8407 253.517 37.3157 256.695C36.6283 260.771 36.0275 264.919 35.5134 269.14C34.9924 273.281 34.7537 277.437 34.7975 281.609C35.4072 281.235 36.3979 280.626 37.7697 279.783C39.2281 279.013 40.6467 278.247 42.0254 277.484C43.4042 276.721 44.2928 276.322 44.6913 276.287C45.2491 276.238 45.5455 276.413 45.5804 276.811C45.6222 277.29 45.4543 277.666 45.0768 277.94C44.6992 278.214 44.3182 278.448 43.9336 278.642C42.2501 279.592 40.5735 280.622 38.9038 281.732C37.3139 282.835 35.7743 284.054 34.2849 285.388C32.418 286.997 30.714 288.632 29.1729 290.293C27.6387 292.033 26.1549 293.889 24.7213 295.862C24.4305 296.209 24.2053 296.389 24.0459 296.403ZM64.5355 275.153C61.5867 275.411 59.5211 274.749 58.3387 273.166C57.1492 271.503 56.436 269.317 56.1989 266.607C55.9479 263.738 56.1457 260.95 56.7922 258.244C57.4388 255.537 58.1651 252.823 58.971 250.103C58.3783 249.753 57.8149 249.28 57.281 248.685C56.8267 248.082 56.5473 247.183 56.4427 245.987C56.3242 244.633 56.9712 242.849 58.3839 240.638C59.7895 238.347 61.4188 236.317 63.2717 234.549C64.0856 233.755 65.175 232.896 66.5398 231.974C67.8976 230.972 69.3092 230.126 70.7746 229.435C72.2331 228.665 73.4405 228.238 74.3968 228.155C77.744 227.862 80.094 229.021 81.4468 231.633C82.7996 234.246 83.4805 237.438 83.4894 241.212C83.7943 241.025 84.3312 240.737 85.1003 240.348C85.949 239.953 86.7614 239.601 87.5375 239.292C88.3065 238.903 88.7708 238.702 88.9302 238.688C89.3286 238.653 89.7446 238.818 90.1779 239.181C90.6112 239.545 90.8453 239.926 90.8802 240.324C90.9011 240.563 90.799 240.773 90.5739 240.953L83.2936 244.481C83.0316 246.994 82.4857 249.933 81.6558 253.298C80.9056 256.656 79.75 259.969 78.1889 263.238C76.7006 266.42 74.8118 269.155 72.5225 271.443C70.3059 273.644 67.6436 274.881 64.5355 275.153ZM67.8158 246.558C69.8081 246.384 71.7034 246.017 73.5015 245.459C75.2927 244.82 77.2328 244.048 79.3218 243.142C79.3667 242.737 79.3682 242.295 79.3263 241.817C79.3642 241.332 79.3657 240.89 79.3308 240.492C79.2472 239.535 79.0335 238.47 78.6898 237.295C78.4258 236.114 77.9367 235.113 77.2224 234.292C76.5809 233.384 75.6624 232.983 74.467 233.087C73.1122 233.206 71.8425 233.839 70.658 234.987C69.4735 236.134 68.3862 237.474 67.3959 239.006C66.4854 240.531 65.6909 242.006 65.0125 243.431C64.4138 244.848 63.9829 245.89 63.7199 246.555C65.1753 246.669 66.5406 246.67 67.8158 246.558ZM65.329 271.831C67.5604 271.636 69.4502 270.748 70.9983 269.167C72.6192 267.499 73.9626 265.414 75.0285 262.912C76.0945 260.409 76.9437 257.725 77.5764 254.859C78.2887 251.986 78.8052 249.17 79.126 246.412C76.8049 247.418 74.1251 248.456 71.0867 249.525C68.121 250.507 65.3491 250.95 62.771 250.854C62.1623 253.076 61.6577 255.569 61.2572 258.335C60.9364 261.093 60.8771 263.628 61.0793 265.939C61.1908 267.214 61.5086 268.552 62.0326 269.951C62.6363 271.344 63.7351 271.971 65.329 271.831ZM91.9572 273.718C91.3196 273.773 90.9002 273.569 90.699 273.105C90.955 272.36 91.2111 271.615 91.4671 270.869C91.7231 270.124 91.9358 269.343 92.1052 268.525C93.1702 264.176 94.0723 259.8 94.8115 255.399C95.6304 250.991 96.4095 246.586 97.1487 242.185L97.7809 238.396C97.7599 238.157 97.474 238.101 96.9231 238.23C96.3653 238.279 96.036 238.187 95.9354 237.955C96.3678 236.471 96.7204 234.995 96.9934 233.526C97.3391 231.97 97.7281 230.45 98.1605 228.967C98.3438 228.308 99.0486 227.644 100.275 226.975C101.501 226.305 102.433 225.943 103.071 225.887C104.187 225.789 104.79 226.259 104.88 227.295C104.929 227.852 104.751 229.032 104.347 230.835C104.015 232.55 103.552 234.598 102.957 236.979C102.435 239.273 101.84 241.654 101.173 244.122C100.578 246.503 100.009 248.721 99.4663 250.776C98.996 252.744 98.6469 254.261 98.4187 255.324C99.6022 252.33 101.044 249.072 102.743 245.55C104.443 242.029 106.356 238.649 108.482 235.412C110.607 232.174 112.949 229.56 115.505 227.57C116.333 226.935 117.105 226.586 117.822 226.524C119.496 226.377 120.808 227.146 121.758 228.829C122.702 230.433 123.233 231.913 123.351 233.268C123.393 233.746 123.34 234.513 123.191 235.57C123.036 236.547 122.757 237.495 122.356 238.414C122.027 239.246 121.544 239.689 120.906 239.745C120.428 239.787 120.078 239.456 119.856 238.753C119.627 237.97 119.391 237.107 119.148 236.165C118.898 235.143 118.542 234.291 118.081 233.608C117.613 232.846 116.94 232.503 116.064 232.58C114.788 232.692 113.424 233.614 111.969 235.347C110.508 237.001 109.045 239.097 107.58 241.634C106.116 244.171 104.705 246.864 103.348 249.713C102.064 252.476 100.922 255.025 99.922 257.361C99.0014 259.69 98.3544 261.473 97.9808 262.711C98.0814 262.943 98.1527 263.298 98.1945 263.776C98.2712 264.653 98.1626 265.706 97.8687 266.937C97.6475 268.08 97.3761 269.108 97.0543 270.019C97.0961 270.497 96.7793 271.007 96.1039 271.548C95.5082 272.082 94.7859 272.547 93.9371 272.942C93.0954 273.417 92.4354 273.676 91.9572 273.718ZM156.814 305.867C153.387 306.167 150.285 305.595 147.509 304.152C144.732 302.708 142.527 300.452 140.893 297.383C140.217 296.077 139.613 294.684 139.082 293.205C138.551 291.725 138.22 290.228 138.087 288.714C138.045 288.236 138.092 287.389 138.226 286.172C138.281 284.963 138.627 284.33 139.265 284.275C139.743 284.233 140.053 284.567 140.196 285.277C140.338 285.988 140.423 286.502 140.451 286.821C140.619 288.734 141.224 290.608 142.268 292.444C143.319 294.36 144.432 296.069 145.608 297.572C146.964 299.301 148.585 300.845 150.47 302.206C152.356 303.567 154.455 304.146 156.766 303.944C159.874 303.672 162.649 302.345 165.09 299.963C167.532 297.582 169.672 294.503 171.51 290.729C173.435 287.027 175.085 282.948 176.462 278.491C177.839 274.034 178.973 269.558 179.865 265.063C180.757 260.568 181.437 256.413 181.906 252.598C182.448 248.696 182.774 245.535 182.884 243.116L183.254 236.338C182.808 237.662 181.889 239.55 180.497 242C179.178 244.364 177.598 246.952 175.756 249.763C173.987 252.487 172.087 255.103 170.058 257.609C168.108 260.109 166.204 262.203 164.344 263.891C162.477 265.5 160.826 266.367 159.392 266.493C158.595 266.563 158.019 266.412 157.666 266.042C157.392 265.664 157.22 265.077 157.15 264.28C157.067 263.323 157.187 261.948 157.512 260.153C157.916 258.35 158.39 256.422 158.933 254.367C159.476 252.311 160.029 250.376 160.593 248.56C161.157 246.744 161.56 245.383 161.802 244.479C161.927 244.067 162.136 243.245 162.43 242.015C162.796 240.698 163.156 239.301 163.509 237.825C163.941 236.342 164.308 235.025 164.609 233.874C164.909 232.723 165.053 232.068 165.039 231.909C165.018 231.67 164.729 231.575 164.171 231.624C163.613 231.672 163.324 231.577 163.303 231.338L163.832 229.124C164.132 227.973 164.393 226.826 164.615 225.682C164.909 224.452 165.209 223.301 165.517 222.23C165.701 221.572 166.326 220.915 167.393 220.26C168.539 219.597 169.471 219.234 170.188 219.172C171.464 219.06 172.164 219.722 172.289 221.156C172.387 222.272 172.343 223.601 172.156 225.143C171.97 226.685 171.687 228.035 171.306 229.192L164.389 250.637C164.14 251.462 163.766 252.699 163.268 254.349C162.843 255.912 162.668 257.132 162.745 258.008C162.773 258.327 162.88 258.639 163.068 258.944C163.248 259.169 163.498 259.267 163.816 259.24C164.534 259.177 165.303 258.788 166.124 258.074C167.024 257.353 167.878 256.555 168.685 255.682C169.485 254.728 170.066 254.035 170.43 253.602C173.848 249.528 176.608 245.272 178.709 240.832C180.889 236.385 182.933 231.749 184.84 226.924C184.725 226.533 184.654 226.178 184.626 225.859C184.598 225.54 184.57 225.221 184.543 224.903C184.389 223.149 185.042 221.888 186.5 221.117C188.031 220.261 189.514 219.77 190.949 219.644C191.506 219.595 192.035 219.67 192.534 219.867C193.113 220.057 193.43 220.471 193.486 221.109C193.514 221.427 193.279 222.412 192.781 224.061C192.362 225.704 191.805 227.6 191.11 229.749C190.494 231.89 189.908 233.909 189.351 235.805C188.794 237.701 188.431 239.057 188.262 239.875C187.508 244.117 186.783 248.678 186.086 253.557C185.461 258.35 184.644 263.24 183.635 268.226C182.705 273.206 181.396 277.979 179.708 282.543C178.019 287.108 175.771 291.239 172.962 294.938C170.241 298.71 166.776 301.784 162.567 304.159C160.963 305.103 159.045 305.672 156.814 305.867ZM208.361 262.57C205.412 262.828 203.347 262.165 202.164 260.582C200.975 258.92 200.262 256.734 200.025 254.024C199.774 251.155 199.971 248.367 200.618 245.66C201.264 242.954 201.991 240.24 202.797 237.52C202.204 237.17 201.641 236.697 201.107 236.101C200.652 235.499 200.373 234.6 200.268 233.404C200.15 232.049 200.797 230.266 202.209 228.055C203.615 225.763 205.244 223.734 207.097 221.966C207.911 221.172 209.001 220.313 210.365 219.391C211.723 218.389 213.135 217.543 214.6 216.852C216.059 216.082 217.266 215.655 218.222 215.572C221.57 215.279 223.92 216.438 225.272 219.05C226.625 221.662 227.306 224.855 227.315 228.629C227.62 228.442 228.157 228.154 228.926 227.765C229.775 227.37 230.587 227.018 231.363 226.709C232.132 226.32 232.596 226.119 232.756 226.105C233.154 226.07 233.57 226.235 234.004 226.598C234.437 226.962 234.671 227.343 234.706 227.741C234.727 227.98 234.625 228.19 234.399 228.37L227.119 231.898C226.857 234.411 226.311 237.349 225.481 240.715C224.731 244.073 223.576 247.386 222.015 250.655C220.526 253.836 218.637 256.571 216.348 258.86C214.132 261.061 211.469 262.298 208.361 262.57ZM211.641 233.975C213.634 233.801 215.529 233.434 217.327 232.875C219.118 232.237 221.058 231.465 223.147 230.559C223.192 230.154 223.194 229.712 223.152 229.234C223.19 228.749 223.191 228.307 223.156 227.909C223.073 226.952 222.859 225.887 222.515 224.712C222.251 223.531 221.762 222.53 221.048 221.709C220.407 220.801 219.488 220.4 218.293 220.504C216.938 220.623 215.668 221.256 214.484 222.403C213.299 223.551 212.212 224.891 211.222 226.423C210.311 227.948 209.517 229.423 208.838 230.848C208.239 232.265 207.809 233.307 207.546 233.972C209.001 234.086 210.366 234.087 211.641 233.975ZM209.155 259.248C211.386 259.053 213.276 258.165 214.824 256.584C216.445 254.916 217.788 252.831 218.854 250.329C219.92 247.826 220.769 245.142 221.402 242.276C222.114 239.403 222.631 236.587 222.952 233.829C220.631 234.835 217.951 235.873 214.912 236.941C211.947 237.924 209.175 238.367 206.597 238.271C205.988 240.493 205.483 242.986 205.083 245.752C204.762 248.51 204.703 251.045 204.905 253.356C205.016 254.631 205.334 255.969 205.858 257.368C206.462 258.761 207.561 259.388 209.155 259.248ZM260.923 257.971C260.285 258.027 259.627 257.844 258.947 257.421C258.348 256.992 258.016 256.419 257.954 255.702C257.738 253.231 257.776 250.457 258.069 247.38C258.441 244.296 258.894 241.204 259.426 238.106C259.951 234.928 260.384 232.08 260.726 229.56C260.193 230.812 259.267 232.619 257.948 234.983C256.629 237.347 255.088 239.931 253.326 242.735C251.557 245.46 249.701 248.112 247.758 250.691C245.888 253.183 244.063 255.27 242.283 256.952C240.583 258.627 239.095 259.52 237.82 259.631C237.182 259.687 236.683 259.49 236.322 259.04C236.041 258.582 235.876 258.075 235.828 257.517C235.744 256.56 235.904 255.181 236.309 253.379C236.706 251.497 237.173 249.489 237.709 247.354C238.318 245.133 238.897 243.034 239.447 241.059C240.077 239.076 240.495 237.434 240.702 236.131L242.029 229.269L241.79 229.29C241.551 229.311 241.265 229.255 240.933 229.124C240.679 228.985 240.539 228.757 240.511 228.438C240.504 228.358 240.497 228.279 240.49 228.199C240.563 228.112 240.596 228.029 240.589 227.949C240.848 226.321 240.98 224.623 240.986 222.855C240.985 221.008 241.328 219.412 242.013 218.068C242.778 216.716 244.237 215.946 246.388 215.757C247.743 215.639 248.48 216.257 248.598 217.612C248.696 218.728 248.538 220.589 248.123 223.195C247.702 225.721 247.142 228.5 246.443 231.533C245.825 234.558 245.192 237.424 244.546 240.131C243.892 242.758 243.425 244.766 243.145 246.156C243.035 246.728 242.803 247.752 242.45 249.228C242.091 250.625 241.935 251.602 241.984 252.16L242.125 252.388C242.204 252.382 242.317 252.291 242.462 252.118C245.476 249.847 248.184 246.839 250.587 243.096C253.07 239.345 255.256 235.419 257.146 231.319C259.115 227.212 260.797 223.491 262.192 220.157C262.077 219.765 262.006 219.41 261.978 219.091C261.95 218.773 261.922 218.454 261.895 218.135C261.741 216.382 262.354 215.124 263.733 214.361C265.191 213.59 266.637 213.143 268.072 213.017C268.55 212.975 269.075 213.01 269.647 213.12C270.219 213.231 270.533 213.605 270.588 214.243C270.616 214.561 270.564 214.887 270.433 215.22C270.374 215.466 270.279 215.755 270.148 216.088C268.957 219.003 267.929 221.944 267.065 224.91C266.28 227.87 265.541 230.906 264.85 234.018C264.57 235.408 264.205 237.206 263.756 239.414C263.3 241.542 262.927 243.702 262.637 245.896C262.42 248.003 262.374 249.774 262.499 251.208C262.548 251.766 262.684 252.397 262.906 253.1C263.201 253.717 263.707 253.994 264.424 253.931C265.062 253.875 265.867 253.443 266.84 252.635C267.807 251.748 268.802 250.737 269.827 249.603C270.932 248.463 271.892 247.496 272.705 246.702C273.592 245.821 274.195 245.367 274.514 245.339C274.753 245.318 274.89 245.507 274.924 245.905C274.945 246.144 274.901 246.55 274.79 247.121C274.672 247.614 274.392 248.08 273.949 248.52C273.142 249.394 272.001 250.578 270.525 252.072C269.043 253.487 267.43 254.792 265.688 255.988C264.025 257.178 262.437 257.839 260.923 257.971ZM284.976 256.469C284.339 256.525 283.699 256.099 283.058 255.192C282.496 254.277 282.19 253.541 282.142 252.983C282.016 251.549 282.646 250.49 284.032 249.806C284.316 249.38 284.912 248.846 285.819 248.204C286.727 247.563 287.638 246.961 288.552 246.399C289.546 245.83 290.283 245.525 290.761 245.483C290.84 245.476 290.967 245.546 291.14 245.691C290.929 246.031 290.642 246.417 290.278 246.851C289.987 247.197 289.74 247.58 289.535 248C289.12 248.759 288.769 249.793 288.482 251.103C288.195 252.413 287.818 253.611 287.351 254.696C286.883 255.78 286.092 256.372 284.976 256.469ZM305.873 254.641C305.235 254.697 304.596 254.271 303.954 253.363C303.392 252.449 303.087 251.713 303.038 251.155C302.913 249.72 303.543 248.661 304.929 247.978C305.213 247.552 305.808 247.018 306.716 246.376C307.623 245.735 308.534 245.133 309.449 244.571C310.443 244.002 311.179 243.697 311.657 243.655C311.737 243.648 311.864 243.717 312.037 243.863C311.826 244.202 311.538 244.589 311.175 245.022C310.884 245.369 310.636 245.752 310.432 246.171C310.017 246.931 309.666 247.965 309.379 249.275C309.092 250.585 308.715 251.782 308.247 252.867C307.78 253.952 306.989 254.543 305.873 254.641ZM326.77 252.813C326.132 252.869 325.493 252.443 324.851 251.535C324.289 250.621 323.984 249.884 323.935 249.327C323.81 247.892 324.44 246.833 325.825 246.15C326.109 245.723 326.705 245.189 327.613 244.548C328.52 243.906 329.431 243.305 330.346 242.743C331.34 242.174 332.076 241.869 332.554 241.827C332.634 241.82 332.76 241.889 332.934 242.035C332.723 242.374 332.435 242.761 332.072 243.194C331.781 243.541 331.533 243.924 331.329 244.343C330.913 245.102 330.562 246.137 330.275 247.447C329.988 248.757 329.611 249.954 329.144 251.039C328.677 252.124 327.885 252.715 326.77 252.813Z" fill="white"/>
</svg>
